<svg width="139" height="56" viewBox="0 0 139 56" fill="none" xmlns="http://www.w3.org/2000/svg">
<path d="M1.66548 53.9006V44.7984L20.7649 28.0768C22.1967 26.7813 23.4155 25.5967 24.4212 24.5228C25.4268 23.4319 26.1939 22.341 26.7223 21.2501C27.2507 20.1421 27.5149 18.9404 27.5149 17.645C27.5149 16.1961 27.1996 14.9603 26.5689 13.9376C25.9382 12.8978 25.0689 12.0967 23.9609 11.5342C22.853 10.9717 21.5831 10.6904 20.1513 10.6904C18.7024 10.6904 17.4325 10.9887 16.3416 11.5853C15.2507 12.1648 14.3984 13.0086 13.7848 14.1165C13.1882 15.2245 12.8899 16.5711 12.8899 18.1563H0.898438C0.898438 14.5938 1.69957 11.5171 3.30185 8.9262C4.90412 6.33529 7.15412 4.34097 10.0518 2.94325C12.9666 1.52847 16.3501 0.821087 20.2024 0.821087C24.174 0.821087 27.6257 1.48586 30.5575 2.81541C33.4893 4.14495 35.7564 6.00291 37.3587 8.38927C38.978 10.7586 39.7876 13.5114 39.7876 16.6478C39.7876 18.6421 39.3871 20.6194 38.5859 22.5796C37.7848 24.5398 36.3445 26.7046 34.2649 29.0739C32.2024 31.4432 29.2706 34.2813 25.4695 37.5881L19.2053 43.3665V43.6989H40.4268V53.9006H1.66548ZM69.2358 55.179C64.6676 55.179 60.7301 54.0967 57.4233 51.9319C54.1165 49.7501 51.5682 46.6222 49.7784 42.5484C47.9886 38.4575 47.1023 33.5398 47.1193 27.7955C47.1364 22.0512 48.0313 17.1762 49.804 13.1705C51.5938 9.14779 54.1335 6.08813 57.4233 3.99154C60.7301 1.87791 64.6676 0.821087 69.2358 0.821087C73.804 0.821087 77.7415 1.87791 81.0483 3.99154C84.3722 6.08813 86.929 9.14779 88.7188 13.1705C90.5085 17.1932 91.3949 22.0682 91.3778 27.7955C91.3778 33.5569 90.483 38.483 88.6932 42.5739C86.9034 46.6648 84.3551 49.7927 81.0483 51.9575C77.7585 54.1052 73.821 55.179 69.2358 55.179ZM69.2358 44.8239C71.9631 44.8239 74.1705 43.4347 75.858 40.6563C77.5455 37.8609 78.3807 33.5739 78.3636 27.7955C78.3636 24.0114 77.9801 20.8921 77.2131 18.4376C76.446 15.966 75.3807 14.1251 74.017 12.9148C72.6534 11.7046 71.0597 11.0995 69.2358 11.0995C66.5256 11.0995 64.3352 12.4717 62.6648 15.216C60.9943 17.9432 60.1506 22.1364 60.1335 27.7955C60.1165 31.6307 60.483 34.8097 61.233 37.3325C62 39.8552 63.0739 41.7387 64.4545 42.983C65.8352 44.2103 67.429 44.8239 69.2358 44.8239ZM131.226 47.3552L100.084 16.3154L107.729 8.56825L138.871 39.7103L131.226 47.3552ZM107.729 47.3552L100.084 39.7103L131.226 8.56825L138.871 16.3154L107.729 47.3552Z" fill="#A456F0"/>
</svg>
