<svg width="88" height="54" viewBox="0 0 88 54" fill="none" xmlns="http://www.w3.org/2000/svg">
<path d="M0.855424 53.5V44.3977L19.9549 27.6761C21.3867 26.3807 22.6054 25.196 23.6111 24.1222C24.6168 23.0312 25.3838 21.9403 25.9122 20.8494C26.4407 19.7415 26.7049 18.5398 26.7049 17.2443C26.7049 15.7955 26.3895 14.5597 25.7588 13.5369C25.1282 12.4972 24.2588 11.696 23.1509 11.1335C22.0429 10.571 20.773 10.2898 19.3412 10.2898C17.8924 10.2898 16.6225 10.5881 15.5316 11.1847C14.4407 11.7642 13.5884 12.608 12.9747 13.7159C12.3782 14.8239 12.0799 16.1705 12.0799 17.7557H0.0883789C0.0883789 14.1932 0.889515 11.1165 2.49179 8.52557C4.09406 5.93466 6.34406 3.94034 9.24179 2.54261C12.1566 1.12784 15.5401 0.420453 19.3924 0.420453C23.3639 0.420453 26.8157 1.08523 29.7475 2.41477C32.6793 3.74432 34.9463 5.60227 36.5486 7.98863C38.1679 10.358 38.9776 13.1108 38.9776 16.2472C38.9776 18.2415 38.577 20.2187 37.7759 22.179C36.9747 24.1392 35.5344 26.304 33.4549 28.6733C31.3924 31.0426 28.4605 33.8807 24.6594 37.1875L18.3952 42.9659V43.2983H39.6168V53.5H0.855424ZM79.3689 46.9545L48.2269 15.9148L55.8718 8.16761L87.0138 39.3097L79.3689 46.9545ZM55.8718 46.9545L48.2269 39.3097L79.3689 8.16761L87.0138 15.9148L55.8718 46.9545Z" fill="#A456F0"/>
</svg>
