<svg width="153" height="58" viewBox="0 0 153 58" fill="none" xmlns="http://www.w3.org/2000/svg">
<path d="M20.5559 56.2159C16.7377 56.2159 13.3457 55.5256 10.3798 54.1449C7.41386 52.7642 5.07011 50.8636 3.34852 48.4432C1.64398 46.0227 0.757613 43.2443 0.689431 40.108H12.9622C13.0644 42.0341 13.8485 43.5852 15.3144 44.7614C16.7803 45.9205 18.5275 46.5 20.5559 46.5C22.1411 46.5 23.5474 46.1506 24.7747 45.4517C26.0019 44.7528 26.965 43.7727 27.6639 42.5114C28.3627 41.233 28.7036 39.767 28.6866 38.1136C28.7036 36.4261 28.3542 34.9517 27.6383 33.6903C26.9394 32.429 25.9678 31.4489 24.7235 30.75C23.4962 30.0341 22.0815 29.6761 20.4792 29.6761C18.9622 29.6591 17.5218 29.9915 16.1582 30.6733C14.8116 31.3551 13.7889 32.2841 13.09 33.4602L1.9167 31.3636L4.19227 3.13636H37.7889V13.3381H14.5985L13.3968 25.6875H13.7036C14.573 24.2386 15.9707 23.0455 17.8968 22.108C19.84 21.1534 22.0474 20.6761 24.519 20.6761C27.6553 20.6761 30.4508 21.4091 32.9053 22.875C35.3769 24.3239 37.3201 26.3352 38.7349 28.9091C40.1667 31.483 40.8826 34.4318 40.8826 37.7557C40.8826 41.3523 40.0303 44.5398 38.3258 47.3182C36.6383 50.0966 34.269 52.2784 31.2178 53.8636C28.1838 55.4318 24.6298 56.2159 20.5559 56.2159ZM69.487 56.7784C64.9188 56.7784 60.9813 55.696 57.6745 53.5312C54.3677 51.3494 51.8194 48.2216 50.0296 44.1477C48.2399 40.0568 47.3535 35.1392 47.3705 29.3949C47.3876 23.6506 48.2825 18.7756 50.0552 14.7699C51.845 10.7472 54.3847 7.6875 57.6745 5.59091C60.9813 3.47727 64.9188 2.42045 69.487 2.42045C74.0552 2.42045 77.9927 3.47727 81.2995 5.59091C84.6234 7.6875 87.1802 10.7472 88.97 14.7699C90.7597 18.7926 91.6461 23.6676 91.6291 29.3949C91.6291 35.1562 90.7342 40.0824 88.9444 44.1733C87.1546 48.2642 84.6063 51.392 81.2995 53.5568C78.0097 55.7045 74.0722 56.7784 69.487 56.7784ZM69.487 46.4233C72.2143 46.4233 74.4217 45.0341 76.1092 42.2557C77.7967 39.4602 78.6319 35.1733 78.6149 29.3949C78.6149 25.6108 78.2313 22.4915 77.4643 20.0369C76.6972 17.5653 75.6319 15.7244 74.2683 14.5142C72.9046 13.304 71.3109 12.6989 69.487 12.6989C66.7768 12.6989 64.5864 14.071 62.916 16.8153C61.2455 19.5426 60.4018 23.7358 60.3847 29.3949C60.3677 33.2301 60.7342 36.4091 61.4842 38.9318C62.2512 41.4545 63.3251 43.3381 64.7058 44.5824C66.0864 45.8097 67.6802 46.4233 69.487 46.4233ZM128.204 45.6818V42.9205C128.204 40.7727 128.665 38.7869 129.585 36.9631C130.523 35.1392 131.878 33.6733 133.65 32.5653C135.423 31.4574 137.588 30.9034 140.145 30.9034C142.753 30.9034 144.943 31.4574 146.716 32.5653C148.505 33.6562 149.852 35.1136 150.755 36.9375C151.676 38.7443 152.136 40.7386 152.136 42.9205V45.6818C152.136 47.8295 151.676 49.8153 150.755 51.6392C149.835 53.4631 148.48 54.929 146.69 56.0369C144.9 57.1449 142.719 57.6989 140.145 57.6989C137.554 57.6989 135.372 57.1449 133.599 56.0369C131.827 54.929 130.48 53.4631 129.559 51.6392C128.656 49.8153 128.204 47.8295 128.204 45.6818ZM136.361 42.9205V45.6818C136.361 46.7727 136.625 47.821 137.153 48.8267C137.699 49.8324 138.696 50.3352 140.145 50.3352C141.628 50.3352 142.625 49.8494 143.136 48.8778C143.648 47.8892 143.903 46.8239 143.903 45.6818V42.9205C143.903 41.7784 143.656 40.7045 143.162 39.6989C142.684 38.6761 141.679 38.1648 140.145 38.1648C138.713 38.1648 137.724 38.6761 137.179 39.6989C136.633 40.7045 136.361 41.7784 136.361 42.9205ZM101.051 15.7159V12.9545C101.051 10.7727 101.52 8.77841 102.457 6.97159C103.412 5.14773 104.775 3.69034 106.548 2.59943C108.321 1.49148 110.469 0.9375 112.991 0.9375C115.599 0.9375 117.79 1.49148 119.562 2.59943C121.352 3.69034 122.707 5.14773 123.628 6.97159C124.548 8.77841 125.008 10.7727 125.008 12.9545V15.7159C125.008 17.8977 124.54 19.892 123.602 21.6989C122.682 23.5057 121.327 24.946 119.537 26.0199C117.747 27.0937 115.565 27.6307 112.991 27.6307C110.417 27.6307 108.236 27.0852 106.446 25.9943C104.673 24.9034 103.327 23.4545 102.406 21.6477C101.503 19.8409 101.051 17.8636 101.051 15.7159ZM109.284 12.9545V15.7159C109.284 16.858 109.548 17.9233 110.077 18.9119C110.622 19.8835 111.594 20.3693 112.991 20.3693C114.491 20.3693 115.488 19.8835 115.983 18.9119C116.494 17.9233 116.75 16.858 116.75 15.7159V12.9545C116.75 11.8125 116.511 10.7386 116.034 9.73295C115.557 8.71023 114.542 8.19886 112.991 8.19886C111.559 8.19886 110.579 8.71875 110.051 9.75852C109.54 10.7983 109.284 11.8636 109.284 12.9545ZM104.912 55.5L140.912 3.13636H147.892L111.892 55.5H104.912Z" fill="#A456F0"/>
</svg>
