<svg width="93" height="32" viewBox="0 0 93 32" fill="none" xmlns="http://www.w3.org/2000/svg">
<g clip-path="url(#clip0_86_320)">
<path fill-rule="evenodd" clip-rule="evenodd" d="M4.16685 0H24.5346H92.1035V25.5556H18.8869H11.578L4.16685 31.8933V25.5556H0.103516V0H4.16685ZM31.9513 9.50008C31.9513 10.0082 31.5394 10.4201 31.0313 10.4201C30.5232 10.4201 30.1113 10.0082 30.1113 9.50008C30.1113 8.99198 30.5232 8.58008 31.0313 8.58008C31.5394 8.58008 31.9513 8.99198 31.9513 9.50008ZM12.6651 10.9351V8.7373H10.3906V9.81064H11.234V16.4551C11.6684 16.7106 12.7162 16.9151 13.5084 16.9151C15.5273 16.9151 16.5495 15.5606 16.5495 13.6951C16.5495 12.1362 15.6806 11.1906 14.4284 11.1906C13.5084 11.1906 12.9206 11.5995 12.5884 12.3406H12.5628C12.6651 11.344 12.6651 11.1651 12.6651 10.9351ZM13.5595 15.714C13.2528 15.714 12.844 15.6117 12.6395 15.5095H12.614V13.7206C12.614 12.9029 13.074 12.3662 13.8662 12.3662C14.6584 12.3662 15.0673 12.9284 15.0673 13.8484C15.0673 14.9473 14.5306 15.714 13.5595 15.714ZM19.1919 14.4414V11.3236V11.2981H16.9941V12.3714H17.7353V15.0548C17.7353 16.1025 18.2975 16.9203 19.5753 16.9203C20.5208 16.9203 21.1341 16.537 21.4664 15.6681H21.4919C21.4153 15.7959 21.3641 16.1536 21.3641 16.7925H23.4086V15.7192H22.7697V11.3236H20.623V12.397H21.313V14.3903C21.313 15.2081 20.8019 15.7192 20.163 15.7192C19.473 15.7192 19.1919 15.4381 19.1919 14.4414ZM28.6794 12.8978H27.3761V12.3355C27.095 12.2333 26.8139 12.1822 26.5328 12.1822C25.8683 12.1822 25.5616 12.4633 25.5616 12.7444C25.5616 13.1278 25.6894 13.1533 27.1716 13.3322C28.475 13.5111 28.9861 13.9711 28.9861 14.9933C28.9861 16.1433 28.0661 16.8844 26.405 16.8844C25.7916 16.8844 24.7694 16.7311 24.2583 16.5522V15.0189H25.5616V15.6578C25.8172 15.7344 26.2261 15.8367 26.5328 15.8367C27.0694 15.8367 27.6061 15.6067 27.6061 15.1722C27.6061 14.7633 27.2994 14.6867 25.6128 14.4311C24.5905 14.2778 24.1816 13.7667 24.1816 12.9744C24.1816 11.85 25.1272 11.1855 26.5839 11.1855C27.1716 11.1855 27.8872 11.2622 28.705 11.5433V12.8978H28.6794ZM31.8343 15.7159V11.3203H29.6621V12.3936H30.3777V15.7159H29.7899V16.7892H32.4732V15.7159H31.8343ZM38.9989 15.7089H39.6122V16.7822H36.9289V15.7089H37.5166V13.4344C37.5166 12.7444 37.1333 12.4378 36.5711 12.4378C35.7533 12.4378 35.2933 13 35.2933 13.8433V15.7089H35.9322V16.7822H33.3V15.7089H33.8367V12.3867H33.1211V11.3133H35.2678C35.2678 11.7222 35.2678 12.0289 35.1911 12.4378H35.2166C35.4978 11.7222 36.1366 11.1855 37.1078 11.1855C38.4111 11.1855 38.9989 12.0544 38.9989 13.2811V15.7089ZM43.3613 15.7886C42.3135 15.7886 41.6746 15.252 41.6235 14.3831V14.3575H45.4057C45.4057 12.2364 44.3835 11.1631 42.7735 11.1631C41.1124 11.1631 40.0391 12.3131 40.0391 14.0509C40.0391 15.7886 41.138 16.8875 43.0546 16.8875C43.7957 16.8875 44.358 16.8109 45.048 16.5553L45.1246 15.4053C44.4857 15.6864 44.0257 15.7886 43.3613 15.7886ZM42.7224 12.1853C43.438 12.1853 43.8468 12.6198 43.8468 13.3609H41.6235C41.7002 12.5942 42.0835 12.1853 42.7224 12.1853ZM50.6462 12.8978H49.3429V12.3355C49.0618 12.2333 48.7807 12.1822 48.4995 12.1822C47.8351 12.1822 47.5284 12.4633 47.5284 12.7444C47.5284 13.1278 47.6562 13.1533 49.1384 13.3322C50.4418 13.5111 50.9529 13.9711 50.9529 14.9933C50.9529 16.1433 50.0329 16.8844 48.3718 16.8844C47.7584 16.8844 46.7362 16.7311 46.2251 16.5522V15.0189H47.5284V15.6578C47.784 15.7344 48.1929 15.8367 48.4995 15.8367C49.0362 15.8367 49.5729 15.6067 49.5729 15.1722C49.5729 14.7633 49.2662 14.6867 47.5795 14.4311C46.5573 14.2778 46.1484 13.7667 46.1484 12.9744C46.1484 11.85 47.094 11.1855 48.5507 11.1855C49.1384 11.1855 49.854 11.2622 50.6718 11.5433V12.8978H50.6462ZM54.8683 12.8978H56.1716H56.1972V11.5433C55.3794 11.2622 54.6638 11.1855 54.0761 11.1855C52.6194 11.1855 51.6738 11.85 51.6738 12.9744C51.6738 13.7667 52.0827 14.2778 53.1049 14.4311C54.7916 14.6867 55.0983 14.7633 55.0983 15.1722C55.0983 15.6067 54.5616 15.8367 54.0249 15.8367C53.7183 15.8367 53.3094 15.7344 53.0538 15.6578V15.0189H51.7505V16.5522C52.2616 16.7311 53.2838 16.8844 53.8972 16.8844C55.5583 16.8844 56.4783 16.1433 56.4783 14.9933C56.4783 13.9711 55.9672 13.5111 54.6638 13.3322C53.1816 13.1533 53.0538 13.1278 53.0538 12.7444C53.0538 12.4633 53.3605 12.1822 54.0249 12.1822C54.3061 12.1822 54.5872 12.2333 54.8683 12.3355V12.8978ZM64.8733 13.0542H63.6211V12.3131C63.3911 12.262 63.2888 12.262 63.1099 12.262C62.2411 12.262 61.7299 13.0031 61.7299 13.8975C61.7299 14.9964 62.3688 15.712 63.4677 15.712C63.9277 15.712 64.3877 15.6098 64.8477 15.4053L64.771 16.632C64.1833 16.8364 63.9533 16.8875 63.161 16.8875C61.3722 16.8875 60.2988 15.712 60.2988 14.0253C60.2988 12.262 61.4233 11.1631 63.1866 11.1631C63.851 11.1631 64.3877 11.2653 64.8988 11.4186V13.0542H64.8733ZM65.5098 14.0764C65.5098 15.8653 66.532 16.8875 68.372 16.8875C70.0842 16.8875 71.2342 15.7375 71.2342 14.0764C71.2342 12.1853 70.2375 11.1631 68.372 11.1631C66.6598 11.1631 65.5098 12.4664 65.5098 14.0764ZM68.3464 12.3642C69.2664 12.3642 69.6498 12.952 69.6498 14.1275C69.6498 15.1242 69.2664 15.712 68.3464 15.712C67.452 15.712 67.0687 15.1242 67.0687 14.1275C67.0687 12.952 67.6053 12.3642 68.3464 12.3642ZM77.4791 12.4122C77.7347 11.6455 78.348 11.1855 79.3192 11.1855C80.6225 11.1855 81.2103 12.0544 81.2103 13.2811V15.7089H81.8492V16.7822H79.2169V15.7089H79.7536V13.4344C79.7536 12.7444 79.3703 12.4378 78.808 12.4378C78.0925 12.4378 77.658 13.0511 77.658 13.8433V15.7089H78.2969V16.7822H75.6647V15.7089H76.2014V13.4344C76.2014 12.7444 75.818 12.4378 75.2558 12.4378C74.5147 12.4378 74.1058 13.0511 74.1058 13.8433V15.7089H74.7447V16.7822H72.0614V15.7089H72.6491V12.3867H71.9336V11.3133H74.0803C74.0803 11.6966 74.0803 12.0545 74.0036 12.4122H74.0291C74.3358 11.62 75.0003 11.1855 75.9203 11.1855C76.7636 11.1855 77.3003 11.5944 77.4791 12.4122ZM58.4144 16.9624C58.9366 16.9624 59.36 16.5391 59.36 16.0168C59.36 15.4946 58.9366 15.0713 58.4144 15.0713C57.8922 15.0713 57.4689 15.4946 57.4689 16.0168C57.4689 16.5391 57.8922 16.9624 58.4144 16.9624Z" fill="black"/>
</g>
<defs>
<clipPath id="clip0_86_320">
<rect width="93" height="32" fill="white"/>
</clipPath>
</defs>
</svg>
