<svg width="81" height="16" viewBox="0 0 81 16" fill="none" xmlns="http://www.w3.org/2000/svg">
<g clip-path="url(#clip0_86_326)">
<mask id="mask0_86_326" style="mask-type:alpha" maskUnits="userSpaceOnUse" x="0" y="0" width="81" height="16">
<path d="M0.650391 0H80.943V15.2102H0.650391V0Z" fill="white"/>
</mask>
<g mask="url(#mask0_86_326)">
<path fill-rule="evenodd" clip-rule="evenodd" d="M48.7711 -0.00164201H47.2026V14.9903H50.2529V1.43621C50.2529 1.02962 50.1077 0.688402 49.8173 0.412032C49.5265 0.136232 49.1779 -0.00164201 48.7711 -0.00164201ZM53.4988 3.39761H51.9302V14.9906H54.9807V4.87953C54.9807 4.47276 54.8346 4.12436 54.5449 3.83337C54.254 3.54355 53.9055 3.39761 53.4988 3.39761ZM45.4384 3.39761C44.6538 3.39761 43.8911 3.49997 43.1503 3.7026C42.4094 3.90637 41.7628 4.22579 41.2108 4.66155C40.6298 5.12652 40.1717 5.74406 39.8383 6.51385C39.5041 7.2838 39.3371 8.23538 39.3371 9.36835V14.9906H42.3876V9.0199C42.3876 8.14817 42.5908 7.50956 42.9978 7.10221C43.4045 6.69582 44.0285 6.49202 44.8721 6.49202H45.8742V3.39776H45.656L45.4384 3.39761ZM78.3493 3.39761H74.6883L70.9844 7.6688V3.39761V1.43652C70.9844 1.05912 70.8381 0.724958 70.5481 0.433965C70.2577 0.143948 69.9087 -0.00162645 69.5021 -0.00162645H67.9334V14.9903H70.9845V12.201V10.5885C70.9845 10.3563 71.1431 10.0974 71.4635 10.0655C71.8016 10.032 72.1602 10.2833 72.5962 11.0677L74.7319 14.9902H78.3929L74.2091 7.84299L78.3493 3.39761ZM64.9487 4.13836C63.8732 3.47056 62.6964 3.13622 61.4187 3.13622C60.1692 3.1948 59.0281 3.55779 57.9971 4.22579C56.9655 4.89452 56.4501 6.21591 56.4501 8.19162V14.9904H59.5006V7.58133C59.5006 6.88397 59.7038 6.37613 60.1108 6.056C60.5176 5.7366 60.9826 5.57681 61.5057 5.57681C62.0287 5.57681 62.5007 5.7366 62.9223 6.056C63.3431 6.37615 63.5539 6.88397 63.5539 7.58133V13.5085C63.5539 13.9445 63.6915 14.3003 63.9679 14.5764C64.2439 14.8526 64.5998 14.9904 65.0358 14.9904H66.5611V8.19162C66.5611 6.1583 66.0233 4.8073 64.9487 4.13836ZM53.4988 -0.00164201H51.9302V2.39526H54.9807V1.47992C54.9807 1.07371 54.8346 0.724958 54.5449 0.433965C54.254 0.143948 53.9055 -0.00164201 53.4988 -0.00164201ZM8.74078 11.4296C8.73471 11.4304 8.72827 11.4307 8.7222 11.4315C8.6623 11.4387 8.60051 11.451 8.53834 11.467C8.52677 11.47 8.51521 11.4728 8.50403 11.4759C8.36205 11.5166 8.21856 11.5845 8.08815 11.7026C7.78183 11.9799 7.60309 12.2405 7.29601 12.4075C6.95974 12.5876 6.56189 12.6806 6.09745 12.6806C5.34171 12.6806 4.77513 12.4484 4.3979 11.9833C3.87456 11.4317 3.61318 10.4874 3.61318 9.15021C3.61318 7.81424 3.87457 6.85566 4.3979 6.27414C4.8045 5.86736 5.32745 5.66395 5.96663 5.66395C6.66419 5.66395 7.20117 5.86734 7.57933 6.27414C7.72452 6.41971 7.86934 6.63789 8.01511 6.92789H11.0662C10.833 6.0855 10.456 5.34454 9.93264 4.70536C8.97406 3.6592 7.62295 3.13622 5.8798 3.13622C4.2235 3.13622 2.93036 3.67434 2.00081 4.74856C1.09989 5.79451 0.649658 7.24781 0.649658 9.10696C0.649658 11.0538 1.11406 12.5498 2.04437 13.5959C2.97392 14.6713 4.26705 15.2083 5.9232 15.2083C7.28835 15.2083 8.42168 14.875 9.32245 14.2057C10.2228 13.5671 10.833 12.6368 11.1526 11.4166C11.1526 11.4166 9.19049 11.417 8.96701 11.417C8.89725 11.417 8.82077 11.4209 8.74078 11.4296ZM13.7785 -0.00164201H12.2096V14.9903H15.2601V1.43621C15.2601 1.02962 15.1141 0.688402 14.8245 0.412032C14.5339 0.136232 14.1851 -0.00164201 13.7785 -0.00164201ZM19.5086 8.01724C19.5373 7.26187 19.7554 6.68128 20.1624 6.27393C20.5686 5.86716 21.0919 5.66374 21.7315 5.66374C22.4283 5.66374 22.9657 5.86713 23.3435 6.27393C23.6925 6.6519 23.8957 7.23252 23.9539 8.01724H19.5086ZM21.6442 3.13607C19.988 3.13607 18.6949 3.67419 17.7653 4.7484C16.8646 5.79436 16.4142 7.24766 16.4142 9.10681C16.4142 11.0537 16.8784 12.5497 17.8091 13.5958C18.7385 14.6711 20.0318 15.2081 21.6879 15.2081C23.0531 15.2081 24.186 14.8749 25.0872 14.2056C25.9875 13.5669 26.5977 12.6366 26.9173 11.4165C26.9173 11.4165 25.1052 11.4169 24.7332 11.4169C24.4785 11.4169 24.135 11.4476 23.8539 11.7023C23.5493 11.9783 23.3707 12.2369 23.0667 12.404C22.7293 12.5864 22.3289 12.6804 21.8619 12.6804C21.1059 12.6804 20.5396 12.4482 20.1623 11.9831C19.7554 11.5473 19.5372 10.8793 19.5086 9.97837H27.0484C27.0768 9.92037 27.0922 9.81933 27.0922 9.67319V9.4988V9.19381C27.0922 7.27628 26.6268 5.78014 25.697 4.7052C24.7384 3.65904 23.3873 3.13607 21.6442 3.13607ZM80.6775 14.2453C80.6326 14.3553 80.5708 14.4506 80.4921 14.5312C80.4135 14.6119 80.3211 14.675 80.2152 14.7207C80.1094 14.7666 79.9951 14.789 79.8727 14.7882C79.7483 14.7874 79.6327 14.7639 79.5265 14.7171C79.4202 14.6703 79.3283 14.6062 79.2504 14.5245C79.1725 14.4432 79.1116 14.3471 79.068 14.2366C79.024 14.1261 79.0026 14.0057 79.0034 13.8753C79.0041 13.7491 79.0269 13.6314 79.0718 13.5222C79.1167 13.4132 79.1785 13.3188 79.2572 13.239C79.3359 13.1592 79.4285 13.0964 79.5355 13.0509C79.6422 13.0053 79.7578 12.9827 79.8823 12.9835C80.0048 12.984 80.1189 13.0077 80.2241 13.0546C80.3295 13.1012 80.421 13.1649 80.4991 13.2454C80.5769 13.3262 80.6375 13.4211 80.6813 13.5309C80.7251 13.6405 80.7465 13.7584 80.7459 13.8848C80.7452 14.015 80.7222 14.135 80.6775 14.2453ZM80.8555 13.4697C80.7998 13.341 80.724 13.2293 80.6282 13.1345C80.5325 13.0398 80.4207 12.9651 80.2929 12.9107C80.165 12.8561 80.0283 12.8286 79.8831 12.8278C79.7379 12.8271 79.6005 12.8533 79.4712 12.9063C79.3415 12.9592 79.228 13.0328 79.1304 13.1266C79.0328 13.2202 78.9554 13.3311 78.898 13.4591C78.8409 13.587 78.8117 13.7254 78.811 13.8746C78.8102 14.0271 78.8379 14.1684 78.8936 14.2978C78.9495 14.4275 79.0257 14.5399 79.1224 14.6356C79.2191 14.7313 79.3317 14.8062 79.4606 14.8597C79.5895 14.9131 79.7265 14.9402 79.8719 14.941C80.0171 14.9416 80.1538 14.9162 80.2823 14.8638C80.411 14.8119 80.5234 14.7384 80.6203 14.6436C80.7169 14.549 80.7939 14.4371 80.8511 14.3083C80.9084 14.1794 80.9374 14.0385 80.9383 13.8857C80.9391 13.7369 80.9114 13.5982 80.8555 13.4697ZM79.8581 13.815L79.6571 13.8139L79.6592 13.4208L79.914 13.4221C79.946 13.4223 79.9784 13.4247 80.0114 13.4297C80.0444 13.4344 80.0734 13.4437 80.099 13.457C80.1244 13.4704 80.1449 13.4894 80.1608 13.5138C80.1767 13.5385 80.1845 13.5717 80.1843 13.613C80.1841 13.6621 80.175 13.7004 80.157 13.7275C80.1388 13.7548 80.1147 13.7749 80.0844 13.7879C80.0543 13.801 80.0198 13.8088 79.9811 13.8114C79.9424 13.8141 79.9015 13.8152 79.8581 13.815ZM80.2821 13.8668C80.3447 13.8152 80.3761 13.7337 80.3767 13.6225C80.3773 13.5038 80.3424 13.4149 80.2721 13.3561C80.2015 13.2974 80.0929 13.2674 79.9458 13.2667L79.4678 13.2642L79.4612 14.5003L79.6535 14.5012L79.6564 13.9698L79.86 13.9705L80.1938 14.5043L80.4004 14.5054L80.0495 13.9576C80.1422 13.9485 80.2196 13.9184 80.2821 13.8668ZM35.1736 10.2397C35.1736 11.0536 34.941 11.6932 34.4766 12.1572C34.0112 12.6226 33.3719 12.8546 32.5585 12.8546C32.0641 12.8546 31.6869 12.739 31.4255 12.506C31.1641 12.2446 31.033 11.8958 31.033 11.46C31.033 11.1408 31.1255 10.7388 31.3381 10.5013C31.551 10.2638 31.9591 10.0445 32.4715 9.93471C32.984 9.82515 33.4738 9.71673 33.4738 9.71673C34.1996 9.54253 34.7662 9.35373 35.1735 9.14999L35.1736 10.2397ZM36.7425 3.96407C35.9292 3.41268 34.7088 3.1361 33.0817 3.1361C31.6287 3.1361 30.5102 3.47047 29.7262 4.13824C29.0285 4.71996 28.6215 5.46093 28.5057 6.36092H31.4256C31.5704 6.04152 31.8028 5.82374 32.1231 5.70754C32.442 5.59172 32.8054 5.53296 33.2125 5.53296C33.5895 5.53296 34.0039 5.59816 34.4547 5.72933C34.9047 5.85994 35.13 6.14313 35.13 6.57893C35.1291 6.82042 35.0085 7.02532 34.8283 7.1747C34.5743 7.38492 34.244 7.49581 33.929 7.57636C33.7903 7.612 33.6496 7.64062 33.5086 7.66564C32.9743 7.76004 32.4367 7.83396 31.8999 7.91301C31.3828 7.98921 30.8759 8.11924 30.3904 8.31505C29.9935 8.47503 29.6133 8.6788 29.2681 8.9324C28.556 9.45537 28.2007 10.327 28.2007 11.5473C28.2007 12.8546 28.5927 13.7916 29.3773 14.3583C30.1615 14.9249 31.0769 15.2081 32.1232 15.2081C32.646 15.2081 33.2489 15.1713 33.9315 15.0993C34.6141 15.0263 35.2606 14.8307 35.871 14.5107C36.452 14.2209 36.953 13.7483 37.3746 13.0944C37.7954 12.4406 38.0066 11.533 38.0066 10.3703V6.4045C38.0066 5.35855 37.5849 4.54585 36.7425 3.96407Z" fill="black"/>
</g>
</g>
<defs>
<clipPath id="clip0_86_326">
<rect width="81" height="16" fill="white"/>
</clipPath>
</defs>
</svg>
