<svg width="70" height="28" viewBox="0 0 70 28" fill="none" xmlns="http://www.w3.org/2000/svg">
<g clip-path="url(#clip0_86_344)">
<path d="M0.314941 25.7165V25.5388H0.545941C0.812513 25.5388 0.990227 25.4499 1.11466 25.2901C1.18566 25.1834 1.22123 24.9704 1.22123 24.6148V20.5805C1.22123 20.1895 1.18566 19.9407 1.0968 19.8517C0.972513 19.7095 0.794798 19.6562 0.563656 19.6562H0.314941V19.4785H2.85637C3.79823 19.4785 4.49137 19.5851 4.98908 19.7984C5.46894 20.0117 5.85994 20.3671 6.16194 20.8648C6.46408 21.3622 6.60623 21.9311 6.60623 22.5709C6.60623 23.4417 6.33966 24.1704 5.80637 24.7569C5.22008 25.4145 4.31366 25.7344 3.10523 25.7344H0.314941V25.7165ZM2.09223 25.2722C2.48323 25.3611 2.80323 25.3967 3.0698 25.3967C3.78066 25.3967 4.36708 25.1481 4.84694 24.6502C5.30894 24.1527 5.5578 23.4772 5.5578 22.6064C5.5578 21.7355 5.32694 21.0604 4.84694 20.5625C4.36708 20.0649 3.78051 19.8161 3.03423 19.8161C2.74994 19.8161 2.4478 19.8694 2.09223 19.9582V25.2722Z" fill="black"/>
<path d="M9.64531 25.1126C9.21874 25.45 8.93445 25.6456 8.82774 25.6989C8.66788 25.77 8.49017 25.8054 8.2946 25.8054C8.01031 25.8054 7.76145 25.6989 7.56588 25.5034C7.3706 25.3079 7.28174 25.0413 7.28174 24.7214C7.28174 24.5082 7.33502 24.3304 7.42374 24.1883C7.54817 23.975 7.76131 23.7796 8.08145 23.6019C8.40131 23.4242 8.91674 23.1933 9.62745 22.9266V22.7666C9.62745 22.34 9.55645 22.0556 9.43202 21.8956C9.29002 21.7357 9.11231 21.6646 8.84574 21.6646C8.65017 21.6646 8.49031 21.7179 8.3836 21.8246C8.25931 21.9312 8.20588 22.0556 8.20588 22.18L8.22374 22.4466C8.22374 22.5887 8.18817 22.6953 8.11702 22.7664C8.04602 22.8376 7.95717 22.873 7.83274 22.873C7.72617 22.873 7.61945 22.8376 7.54845 22.7487C7.47731 22.6776 7.44174 22.5532 7.44174 22.4287C7.44174 22.1622 7.58388 21.9134 7.85045 21.7C8.11702 21.4866 8.50817 21.3623 8.98802 21.3623C9.36102 21.3623 9.66331 21.4335 9.91217 21.5579C10.0899 21.6467 10.232 21.8066 10.3209 22.0022C10.3742 22.1266 10.4097 22.4109 10.4097 22.8197V24.2593C10.4097 24.668 10.4097 24.8992 10.4275 25.0056C10.4453 25.0944 10.463 25.1656 10.4986 25.1833C10.5342 25.2189 10.5697 25.2369 10.623 25.2369C10.6763 25.2369 10.7119 25.2189 10.7475 25.2012C10.8185 25.1656 10.9429 25.0412 11.1206 24.8636V25.13C10.7829 25.5922 10.4452 25.8233 10.143 25.8233C10.0009 25.8233 9.87645 25.77 9.7876 25.6633C9.6986 25.5389 9.66302 25.3612 9.64531 25.1126ZM9.64531 24.8104V23.2109C9.18317 23.3886 8.88117 23.5307 8.73888 23.6019C8.49017 23.744 8.33017 23.8862 8.2236 24.0283C8.11688 24.1706 8.0636 24.3304 8.0636 24.5082C8.0636 24.7214 8.13474 24.9167 8.25917 25.0592C8.38345 25.2012 8.54345 25.2722 8.72117 25.2722C8.97002 25.2723 9.27202 25.1126 9.64531 24.8104Z" fill="black"/>
<path d="M12.6844 22.2686C13.1817 21.6643 13.6441 21.3799 14.1061 21.3799C14.3371 21.3799 14.5326 21.4332 14.6925 21.5576C14.8525 21.6642 14.9945 21.8597 15.0834 22.1263C15.1545 22.304 15.1901 22.5883 15.1901 22.9795V24.7743C15.1901 25.0407 15.2078 25.2185 15.2611 25.3252C15.2966 25.3962 15.3499 25.4673 15.4211 25.5029C15.4921 25.5383 15.6344 25.5739 15.8298 25.5739V25.7339H13.7503V25.5739H13.8392C14.0348 25.5739 14.1769 25.5383 14.2479 25.485C14.3191 25.4317 14.3724 25.3429 14.4079 25.2185C14.4257 25.1652 14.4257 25.0232 14.4257 24.7922V23.0683C14.4257 22.6773 14.3724 22.4106 14.2835 22.2329C14.1769 22.0552 14.0169 21.9663 13.7859 21.9663C13.4128 21.9663 13.0573 22.1617 12.7018 22.5706V24.7922C12.7018 25.0763 12.7197 25.254 12.7552 25.3252C12.7908 25.414 12.8618 25.485 12.9329 25.5206C13.0038 25.5562 13.1638 25.5739 13.3948 25.5739V25.7339H11.2805V25.5739H11.3692C11.5824 25.5739 11.7246 25.5206 11.7956 25.414C11.8668 25.3073 11.9024 25.094 11.9024 24.792V23.2279C11.9024 22.7127 11.8845 22.4105 11.8668 22.3039C11.8489 22.1972 11.8135 22.1262 11.7601 22.0727C11.7068 22.0373 11.6535 22.0195 11.5647 22.0195C11.4758 22.0195 11.3692 22.0373 11.2625 22.0906L11.1917 21.9306L12.4711 21.4153H12.6844V22.2686Z" fill="black"/>
<path d="M17.625 21.3801V24.7747C17.625 25.0411 17.6428 25.2188 17.6784 25.3077C17.7138 25.3965 17.7673 25.4677 17.8561 25.5033C17.9271 25.5387 18.0693 25.5743 18.2648 25.5743V25.7343H16.221V25.5743C16.4343 25.5743 16.5585 25.5565 16.6297 25.521C16.7008 25.4854 16.7541 25.4144 16.7897 25.3255C16.825 25.2368 16.843 25.0591 16.843 24.7925V23.1751C16.843 22.7133 16.825 22.4287 16.8074 22.2865C16.7897 22.18 16.7541 22.1267 16.7008 22.0733C16.6473 22.0378 16.5941 22.02 16.5053 22.02C16.4164 22.02 16.3098 22.0378 16.1854 22.0911L16.1143 21.9311L17.3938 21.4158H17.6248L17.625 21.3801ZM17.2341 19.1587C17.3584 19.1587 17.4651 19.212 17.5717 19.3008C17.6605 19.3895 17.7138 19.4961 17.7138 19.6384C17.7138 19.7627 17.6605 19.8694 17.5717 19.976C17.4828 20.0648 17.3763 20.1181 17.2341 20.1181C17.1097 20.1181 17.003 20.0648 16.8964 19.976C16.8077 19.8871 16.7544 19.7805 16.7544 19.6384C16.7544 19.514 16.8077 19.4073 16.8964 19.3008C17.003 19.212 17.1097 19.1587 17.2341 19.1587Z" fill="black"/>
<path d="M19.491 23.0862C19.491 23.7082 19.6333 24.2059 19.9532 24.5613C20.2553 24.9166 20.6285 25.0943 21.0372 25.0943C21.3216 25.0943 21.5526 25.0234 21.766 24.8634C21.9615 24.7036 22.1392 24.4547 22.2813 24.0814L22.4233 24.1703C22.3525 24.5967 22.1747 24.9702 21.8549 25.3254C21.5527 25.663 21.1616 25.8407 20.6817 25.8407C20.1666 25.8407 19.7399 25.6453 19.3845 25.2543C19.029 24.8634 18.8513 24.3302 18.8513 23.6549C18.8513 22.9263 19.029 22.3753 19.4022 21.9666C19.7755 21.5579 20.2376 21.3623 20.7886 21.3623C21.2682 21.3623 21.6416 21.5223 21.9615 21.8244C22.2636 22.1443 22.4233 22.5532 22.4233 23.0686H19.491V23.0862ZM19.491 22.8197H21.446C21.4283 22.5532 21.3927 22.3577 21.3572 22.251C21.2862 22.0733 21.1617 21.949 21.0196 21.8423C20.8596 21.7357 20.7175 21.7002 20.5399 21.7002C20.291 21.7002 20.06 21.8067 19.8645 22.0023C19.651 22.1977 19.5266 22.4643 19.491 22.8197Z" fill="black"/>
<path d="M24.432 19.1587V24.757C24.432 25.0235 24.4495 25.2011 24.4853 25.29C24.5208 25.3788 24.574 25.4498 24.6628 25.4854C24.7338 25.5387 24.8938 25.5565 25.1071 25.5565V25.7164H23.0454V25.5565C23.241 25.5565 23.3654 25.5387 23.4364 25.5033C23.5075 25.4677 23.5608 25.3965 23.5964 25.3077C23.632 25.2188 23.6497 25.0411 23.6497 24.7747V20.936C23.6497 20.4561 23.632 20.1717 23.6141 20.065C23.5964 19.9584 23.5608 19.8873 23.5075 19.834C23.4543 19.7984 23.4008 19.7807 23.3298 19.7807C23.2587 19.7807 23.1521 19.7984 23.0277 19.8517L22.9565 19.6918L24.2185 19.1765H24.4318L24.432 19.1587Z" fill="black"/>
<path d="M36.3212 19.4782V19.6559C36.1612 19.6559 36.0191 19.6915 35.9302 19.7448C35.8236 19.7981 35.7349 19.9048 35.6461 20.0646C35.5928 20.1714 35.4861 20.4201 35.3616 20.8289L33.6201 25.8585H33.4424L32.0205 21.8598L30.5988 25.8585H30.4389L28.5906 20.6691C28.4485 20.2781 28.3596 20.0471 28.3241 19.9758C28.2708 19.8514 28.1821 19.7804 28.0755 19.7092C27.9688 19.6559 27.8266 19.6204 27.6489 19.6204V19.4426H29.9594V19.6204H29.8528C29.6928 19.6204 29.5684 19.6559 29.4795 19.7271C29.3906 19.7981 29.3551 19.8869 29.3551 19.9936C29.3551 20.1002 29.4262 20.3491 29.5506 20.7401L30.7768 24.2412L31.8078 21.2557L31.6301 20.7225L31.4878 20.2959C31.4168 20.1361 31.3456 20.0116 31.2746 19.8872C31.2391 19.8339 31.1858 19.7806 31.1324 19.7451C31.0614 19.6918 30.9725 19.6562 30.9014 19.6206C30.8481 19.6029 30.7592 19.5851 30.6171 19.5851V19.4074H33.0519V19.5851H32.8919C32.7142 19.5851 32.5898 19.6207 32.5188 19.6918C32.4476 19.7628 32.3944 19.8695 32.3944 19.9939C32.3944 20.1538 32.4654 20.4204 32.6076 20.8115L33.7982 24.2059L34.9891 20.7582C35.1312 20.3849 35.1845 20.1184 35.1845 19.9584C35.1845 19.8872 35.1668 19.8162 35.1135 19.7628C35.0602 19.7095 35.0068 19.6562 34.9535 19.6385C34.8291 19.6029 34.6869 19.5674 34.4915 19.5674V19.3896H36.3219L36.3212 19.4782Z" fill="black"/>
<path d="M36.6412 23.0862C36.6412 23.7082 36.7833 24.2059 37.1033 24.5613C37.4052 24.9166 37.7786 25.0943 38.1873 25.0943C38.4716 25.0943 38.7027 25.0234 38.916 24.8634C39.1116 24.7036 39.2893 24.4547 39.4315 24.0814L39.5735 24.1703C39.5026 24.5967 39.3249 24.9702 39.0049 25.3254C38.7029 25.663 38.3117 25.8407 37.8319 25.8407C37.3166 25.8407 36.89 25.6453 36.5346 25.2543C36.1792 24.8634 36.0015 24.3302 36.0015 23.6549C36.0015 22.9263 36.1792 22.3753 36.5523 21.9666C36.9256 21.5579 37.3877 21.3623 37.9385 21.3623C38.4183 21.3623 38.7918 21.5223 39.1116 21.8244C39.4138 22.1443 39.5735 22.5532 39.5735 23.0686H36.6412V23.0862ZM36.6412 22.8197H38.5962C38.5785 22.5532 38.5429 22.3577 38.5073 22.251C38.4363 22.0733 38.3119 21.949 38.1697 21.8423C38.0097 21.7357 37.8676 21.7002 37.6899 21.7002C37.4412 21.7002 37.2102 21.8067 37.0146 22.0023C36.7833 22.1977 36.6768 22.4643 36.6412 22.8197Z" fill="black"/>
<path d="M41.564 19.1587V24.757C41.564 25.0235 41.5817 25.2011 41.6174 25.29C41.653 25.3788 41.7063 25.4498 41.795 25.4854C41.8663 25.5387 42.026 25.5565 42.2393 25.5565V25.7164H40.1777V25.5565C40.3731 25.5565 40.4976 25.5387 40.5687 25.5033C40.6397 25.4677 40.693 25.3965 40.7286 25.3077C40.7642 25.2188 40.7819 25.0411 40.7819 24.7747V20.936C40.7819 20.4561 40.7642 20.1717 40.7464 20.065C40.7286 19.9584 40.693 19.8873 40.6397 19.834C40.5864 19.7984 40.5332 19.7807 40.462 19.7807C40.391 19.7807 40.2843 19.7984 40.1599 19.8517L40.0889 19.6918L41.3506 19.1765H41.5639L41.564 19.1587Z" fill="black"/>
<path d="M44.1944 19.1587V24.757C44.1944 25.0235 44.2122 25.2011 44.2477 25.29C44.2832 25.3788 44.3365 25.4498 44.4254 25.4854C44.4965 25.5387 44.6565 25.5565 44.8697 25.5565V25.7164H42.8081V25.5565C43.0035 25.5565 43.128 25.5387 43.1991 25.5033C43.2701 25.4677 43.3235 25.3965 43.359 25.3077C43.3945 25.2188 43.4124 25.0411 43.4124 24.7747V20.936C43.4124 20.4561 43.3945 20.1717 43.3768 20.065C43.359 19.9584 43.3235 19.8873 43.2701 19.834C43.2168 19.7984 43.1635 19.7807 43.0924 19.7807C43.0214 19.7807 42.9147 19.7984 42.7904 19.8517L42.7192 19.6918L43.981 19.1765H44.1942L44.1944 19.1587Z" fill="black"/>
<path d="M46.8071 21.3801V24.7747C46.8071 25.0411 46.8248 25.2188 46.8604 25.3077C46.896 25.3965 46.9492 25.4677 47.0381 25.5033C47.1092 25.5387 47.2514 25.5743 47.4467 25.5743V25.7343H45.403V25.5743C45.6161 25.5743 45.7405 25.5565 45.8117 25.521C45.8827 25.4854 45.936 25.4144 45.9715 25.3255C46.0071 25.2368 46.0248 25.0591 46.0248 24.7925V23.1751C46.0248 22.7133 46.0071 22.4287 45.9894 22.2865C45.9715 22.18 45.936 22.1267 45.8827 22.0733C45.8294 22.0378 45.7761 22.02 45.6872 22.02C45.5985 22.02 45.4917 22.0378 45.3675 22.0911L45.2964 21.9311L46.576 21.4158H46.807L46.8071 21.3801ZM46.4338 19.1587C46.5581 19.1587 46.6648 19.212 46.7714 19.3008C46.8602 19.3895 46.9135 19.4961 46.9135 19.6384C46.9135 19.7627 46.8602 19.8694 46.7714 19.976C46.6825 20.0648 46.576 20.1181 46.4338 20.1181C46.3094 20.1181 46.2027 20.0648 46.0961 19.976C45.9895 19.8871 45.954 19.7805 45.954 19.6384C45.954 19.514 46.0072 19.4073 46.0961 19.3008C46.185 19.212 46.2915 19.1587 46.4338 19.1587Z" fill="black"/>
<path d="M49.2061 22.2686C49.7036 21.6643 50.1659 21.3799 50.6279 21.3799C50.8589 21.3799 51.0544 21.4332 51.2141 21.5576C51.3743 21.6642 51.5163 21.8597 51.6051 22.1263C51.6763 22.304 51.7117 22.5883 51.7117 22.9795V24.7743C51.7117 25.0407 51.7296 25.2185 51.7829 25.3252C51.8184 25.3962 51.8717 25.4673 51.9429 25.5029C52.0139 25.5383 52.156 25.5739 52.3516 25.5739V25.7339H50.2721V25.5739H50.361C50.5564 25.5739 50.6987 25.5383 50.7697 25.485C50.8409 25.4317 50.8941 25.3429 50.9297 25.2185C50.9474 25.1652 50.9474 25.0232 50.9474 24.7922V23.0683C50.9474 22.6773 50.8941 22.4106 50.8053 22.2329C50.6987 22.0552 50.5387 21.9663 50.3077 21.9663C49.9344 21.9663 49.5789 22.1617 49.2234 22.5706V24.7922C49.2234 25.0763 49.2414 25.254 49.277 25.3252C49.3123 25.414 49.3836 25.485 49.4547 25.5206C49.5256 25.5562 49.6856 25.5739 49.9166 25.5739V25.7339H47.8371V25.5739H47.926C48.1393 25.5739 48.2814 25.5206 48.3526 25.414C48.4236 25.3073 48.4591 25.094 48.4591 24.792V23.2279C48.4591 22.7127 48.4414 22.4105 48.4236 22.3039C48.4059 22.1972 48.3703 22.1262 48.317 22.0727C48.2637 22.0373 48.2104 22.0195 48.1216 22.0195C48.0327 22.0195 47.926 22.0373 47.8194 22.0906L47.7483 21.9306L49.028 21.4153H49.2233V22.2685L49.2061 22.2686Z" fill="black"/>
<path d="M53.8266 24.1704C53.5601 24.046 53.3648 23.8683 53.2404 23.6373C53.0982 23.4062 53.0271 23.1576 53.0271 22.8909C53.0271 22.4822 53.1871 22.1087 53.5068 21.8066C53.8266 21.5046 54.2178 21.3623 54.7153 21.3623C55.1239 21.3623 55.4618 21.469 55.7639 21.6644H56.6526C56.7769 21.6644 56.8656 21.6644 56.8836 21.6823C56.9014 21.6823 56.9192 21.7 56.9369 21.7177C56.9545 21.7533 56.9725 21.7889 56.9725 21.86C56.9725 21.931 56.9725 22.0022 56.9545 22.0199C56.9369 22.0377 56.9369 22.0554 56.9014 22.0554C56.8836 22.0732 56.7948 22.0732 56.6703 22.0732H56.1195C56.2972 22.2864 56.3861 22.5709 56.3861 22.9264C56.3861 23.3172 56.2438 23.655 55.9418 23.9393C55.6396 24.2237 55.2309 24.3659 54.7332 24.3659C54.5201 24.3659 54.3068 24.3303 54.0933 24.277C53.9512 24.4014 53.8623 24.4903 53.8268 24.5792C53.7735 24.668 53.7556 24.739 53.7556 24.8102C53.7556 24.8634 53.7735 24.9166 53.8268 24.9702C53.8801 25.0234 53.9689 25.059 54.1289 25.0766C54.2178 25.0943 54.4311 25.0943 54.7688 25.1123C55.4086 25.1299 55.8174 25.1479 55.9951 25.1832C56.2794 25.2187 56.5104 25.3254 56.6705 25.5032C56.8482 25.6809 56.9194 25.894 56.9194 26.143C56.9194 26.4984 56.7594 26.8183 56.4395 27.1204C55.9596 27.5647 55.3375 27.7959 54.5734 27.7959C53.9869 27.7959 53.4713 27.6537 53.0805 27.3872C52.8495 27.2272 52.7429 27.0673 52.7429 26.9073C52.7429 26.8364 52.7606 26.7653 52.7962 26.6942C52.8495 26.5876 52.9561 26.4276 53.1161 26.2144C53.1336 26.1789 53.2936 26.0189 53.5779 25.7167C53.4181 25.6279 53.3113 25.539 53.2405 25.468C53.1692 25.3969 53.1336 25.308 53.1336 25.2192C53.1336 25.1127 53.1692 24.9883 53.2581 24.8462C53.3112 24.6503 53.5068 24.437 53.8266 24.1704ZM53.7734 25.7164C53.6312 25.8764 53.5245 26.0186 53.4535 26.1607C53.3823 26.303 53.3468 26.4273 53.3468 26.534C53.3468 26.6762 53.4356 26.8182 53.6134 26.925C53.9155 27.1203 54.3599 27.2092 54.9464 27.2092C55.4972 27.2092 55.9061 27.1203 56.1726 26.925C56.4392 26.7294 56.5636 26.5162 56.5636 26.303C56.5636 26.143 56.4925 26.0364 56.3325 25.9653C56.1726 25.8942 55.8528 25.8587 55.3905 25.8409C54.6798 25.8054 54.1466 25.77 53.7734 25.7164ZM54.6265 21.5934C54.3955 21.5934 54.2178 21.6823 54.0578 21.86C53.8979 22.0377 53.8268 22.322 53.8268 22.6953C53.8268 23.175 53.9334 23.5484 54.1466 23.815C54.3066 24.0104 54.5021 24.117 54.7509 24.117C54.9819 24.117 55.1772 24.0282 55.3195 23.8504C55.4616 23.6727 55.5505 23.4062 55.5505 23.033C55.5505 22.5532 55.4438 22.162 55.2308 21.8777C55.0706 21.7 54.8754 21.5934 54.6265 21.5934Z" fill="black"/>
<path d="M58.6255 20.1183V21.5046H59.6029V21.8244H58.6255V24.5613C58.6255 24.8277 58.661 25.0234 58.7499 25.1123C58.8208 25.201 58.9276 25.2543 59.0519 25.2543C59.1585 25.2543 59.2473 25.2187 59.3539 25.1654C59.4428 25.0943 59.5139 25.0054 59.5672 24.8813H59.7449C59.6383 25.1832 59.4783 25.4143 59.2829 25.5566C59.0873 25.7164 58.892 25.7876 58.6788 25.7876C58.5366 25.7876 58.3945 25.752 58.27 25.6632C58.1279 25.5922 58.039 25.4677 57.9679 25.3256C57.8969 25.1833 57.879 24.9523 57.879 24.6502V21.8066H57.2036V21.6467C57.3636 21.5756 57.5413 21.469 57.719 21.309C57.8968 21.1493 58.0566 20.9537 58.1988 20.7404C58.2699 20.6162 58.3588 20.4029 58.5009 20.1006H58.6253L58.6255 20.1183Z" fill="black"/>
<path d="M62.0908 21.3799C62.7306 21.3799 63.246 21.6286 63.637 22.1086C63.9568 22.5173 64.1346 22.9973 64.1346 23.5303C64.1346 23.9036 64.0457 24.2946 63.868 24.6856C63.6903 25.0765 63.4414 25.3609 63.1214 25.5565C62.8016 25.7519 62.4461 25.8586 62.0551 25.8586C61.4153 25.8586 60.9178 25.6097 60.5446 25.0942C60.2247 24.6679 60.0647 24.1879 60.0647 23.6547C60.0647 23.2637 60.1536 22.8906 60.3491 22.4996C60.5446 22.1086 60.7934 21.8419 61.1133 21.6465C61.4154 21.4687 61.7354 21.3799 62.0908 21.3799ZM61.9487 21.6642C61.7887 21.6642 61.6288 21.7175 61.4511 21.8063C61.2911 21.8952 61.149 22.0729 61.0601 22.3217C60.9534 22.5706 60.9001 22.8726 60.9001 23.2636C60.9001 23.8856 61.0246 24.4012 61.2734 24.8455C61.5221 25.2896 61.842 25.5207 62.2331 25.5207C62.5353 25.5207 62.7841 25.3963 62.9618 25.1477C63.1573 24.8989 63.2461 24.4722 63.2461 23.8857C63.2461 23.1392 63.0861 22.5529 62.7663 22.1086C62.5707 21.8242 62.2863 21.6642 61.9487 21.6642Z" fill="black"/>
<path d="M65.9831 22.2686C66.4807 21.6643 66.9427 21.3799 67.4048 21.3799C67.6358 21.3799 67.8312 21.4332 67.9912 21.5576C68.1511 21.6642 68.2934 21.8597 68.3822 22.1263C68.4531 22.304 68.4887 22.5883 68.4887 22.9795V24.7743C68.4887 25.0407 68.5064 25.2185 68.5598 25.3252C68.5952 25.3962 68.6487 25.4673 68.7197 25.5029C68.7908 25.5383 68.933 25.5739 69.1284 25.5739V25.7339H67.0491V25.5739H67.1379C67.3334 25.5739 67.4755 25.5383 67.5467 25.485C67.6177 25.4317 67.6711 25.3429 67.7065 25.2185C67.7244 25.1652 67.7244 25.0232 67.7244 24.7922V23.0683C67.7244 22.6773 67.6711 22.4106 67.5822 22.2329C67.4755 22.0552 67.3157 21.9663 67.0845 21.9663C66.7114 21.9663 66.3559 22.1617 66.0005 22.5706V24.7922C66.0005 25.0763 66.0182 25.254 66.0538 25.3252C66.0894 25.414 66.1605 25.485 66.2315 25.5206C66.3027 25.5562 66.4624 25.5739 66.6935 25.5739V25.7339H64.5789V25.5739H64.6678C64.8811 25.5739 65.0232 25.5206 65.0944 25.414C65.1654 25.3073 65.2009 25.094 65.2009 24.792V23.2279C65.2009 22.7127 65.1832 22.4105 65.1654 22.3039C65.1477 22.1972 65.1121 22.1262 65.0588 22.0727C65.0055 22.0373 64.9521 22.0195 64.8632 22.0195C64.7744 22.0195 64.6678 22.0373 64.5614 22.0906L64.4902 21.9306L65.7698 21.4153H65.9652V22.2685L65.9831 22.2686Z" fill="black"/>
<path d="M52.6715 0.000141689V0.391142C52.2984 0.391142 51.9782 0.462285 51.7472 0.586714C51.5162 0.728856 51.2854 0.977572 51.0719 1.351C50.9298 1.59957 50.6988 2.204 50.3965 3.14586L46.3267 14.8933H45.9002L42.5768 5.58057L39.2711 14.8933H38.8802L34.5438 2.79029C34.2239 1.88386 34.0107 1.35086 33.9397 1.19086C33.7972 0.924286 33.6019 0.710999 33.3531 0.586714C33.1044 0.462285 32.7667 0.391142 32.3401 0.391142V0.000141689H37.7427V0.391142H37.4762C37.1031 0.391142 36.8008 0.479998 36.6052 0.657713C36.4098 0.835427 36.3032 1.031 36.3032 1.27971C36.3032 1.52857 36.4631 2.115 36.7829 3.00357L39.6442 11.1789L42.0612 4.22986L41.6349 3.00357L41.2972 2.026C41.1551 1.67071 40.9774 1.35071 40.7997 1.08414C40.7108 0.941998 40.5864 0.835284 40.4619 0.746427C40.2842 0.621999 40.1065 0.533143 39.9288 0.462143C39.7867 0.426572 39.5734 0.391 39.2891 0.391V0H44.9584V0.391H44.5675C44.1587 0.391 43.8742 0.479857 43.6789 0.657571C43.5012 0.835285 43.3945 1.06628 43.3945 1.35086C43.3945 1.72386 43.5545 2.346 43.8742 3.27029L46.6645 11.1964L49.4368 3.16371C49.7567 2.275 49.9167 1.65314 49.9167 1.31543C49.9167 1.15543 49.8634 0.995571 49.7567 0.853428C49.6501 0.711143 49.5257 0.604571 49.3659 0.551285C49.0994 0.444571 48.7439 0.409143 48.2995 0.409143V0.0181427H52.6715V0.000141689Z" fill="black"/>
<path d="M24.9649 14.5739C22.1392 14.5739 20.0242 13.8095 18.6379 12.2989C17.4118 10.9305 16.7898 9.24206 16.7898 7.2162C16.7898 5.70549 17.1272 4.37263 17.8205 3.21749C18.5137 2.0622 19.4199 1.24463 20.5572 0.747059C21.6948 0.249488 23.3475 0.000488281 25.5335 0.000488281H31.4695V0.391488H30.9187C30.3677 0.391488 29.9589 0.551489 29.6747 0.871346C29.4791 1.10235 29.3725 1.6712 29.3725 2.57735V11.9966C29.3725 12.8143 29.4435 13.3473 29.6035 13.5783C29.8701 13.9693 30.2967 14.1648 30.9187 14.1648H31.4695V14.5558H24.9649V14.5739ZM27.3108 1.13806C26.4932 0.924773 25.7469 0.818202 25.1071 0.818202C23.3832 0.818202 21.9791 1.40463 20.8774 2.55977C19.7757 3.71492 19.2245 5.31449 19.2245 7.32277C19.2245 9.31334 19.7755 10.9128 20.8774 12.0679C21.9792 13.2408 23.3477 13.8273 25.0182 13.8273C25.6402 13.8273 26.4044 13.7206 27.3108 13.5252V1.13806Z" fill="black"/>
</g>
<defs>
<clipPath id="clip0_86_344">
<rect width="70" height="28" fill="white"/>
</clipPath>
</defs>
</svg>
