<svg width="91" height="24" viewBox="0 0 91 24" fill="none" xmlns="http://www.w3.org/2000/svg">
<g clip-path="url(#clip0_81_304)">
<path d="M12.0714 0C5.47141 0 0.0714111 5.4 0.0714111 12C0.0714111 18.6 5.47141 24 12.0714 24C18.6714 24 24.0714 18.6 24.0714 12C24.0714 5.4 18.6714 0 12.0714 0ZM5.3857 18.6857C3.5857 16.8857 2.64284 14.4857 2.64284 12.1714L11.9857 21.4286C9.5857 21.3429 7.1857 20.4857 5.3857 18.6857ZM14.1286 21.1714L2.89998 9.94286C3.84284 5.74286 7.61427 2.57143 12.0714 2.57143C15.2428 2.57143 17.9857 4.11429 19.7 6.42857L18.4143 7.54286C16.9571 5.57143 14.6428 4.28571 12.0714 4.28571C8.72855 4.28571 5.89998 6.42857 4.7857 9.42857L14.6428 19.2857C17.1286 18.4286 19.0143 16.2857 19.6143 13.7143H15.5V12H21.5C21.5 16.4571 18.3286 20.2286 14.1286 21.1714Z" fill="white"/>
<path d="M53.9857 10.2857H56.3857V18.8571H53.9857V17.7429C53.1286 19.0286 52.0143 19.1143 51.3286 19.1143C48.6714 19.1143 46.9572 17.0571 46.9572 14.5714C46.9572 12 48.6714 10.0286 51.1572 10.0286C51.8429 10.0286 53.1286 10.1143 53.9 11.4V10.2857H53.9857ZM49.5286 14.5714C49.5286 15.9429 50.4714 16.9714 51.9286 16.9714C53.3 16.9714 54.3286 15.9429 54.3286 14.5714C54.3286 13.2 53.3857 12.1714 51.9286 12.1714C50.5572 12.1714 49.5286 13.2 49.5286 14.5714Z" fill="white"/>
<path d="M61.1001 12.3429V18.8572H58.7001V12.3429H57.7572V10.2857H58.7001V7.37146H61.1001V10.2857H62.7286V12.3429H61.1001Z" fill="white"/>
<path d="M68.3857 12.3429C67.7857 11.8286 67.2715 11.7429 67.0143 11.7429C66.4143 11.7429 66.0715 12 66.0715 12.4286C66.0715 12.6857 66.1572 12.9429 66.8429 13.2L67.4429 13.3714C68.1286 13.6286 69.1572 13.8857 69.5857 14.5714C69.8429 14.9143 70.0143 15.4286 70.0143 16.0286C70.0143 16.8 69.7572 17.5714 69.0715 18.1714C68.3857 18.7714 67.5286 19.1143 66.5 19.1143C64.7 19.1143 63.7572 18.2571 63.1572 17.6571L64.4429 16.2C64.9572 16.7143 65.6429 17.2286 66.3286 17.2286C67.0143 17.2286 67.5286 16.8857 67.5286 16.2857C67.5286 15.7714 67.1 15.5143 66.7572 15.4286L66.2429 15.2571C65.6429 15 64.9572 14.7429 64.4429 14.2286C64.0143 13.8 63.7572 13.2857 63.7572 12.6C63.7572 11.7429 64.1857 11.0571 64.6143 10.6286C65.3 10.1143 66.1572 10.0286 66.8429 10.0286C67.4429 10.0286 68.4715 10.1143 69.5857 10.9714L68.3857 12.3429Z" fill="white"/>
<path d="M73.6143 11.4C74.4714 10.2 75.6714 10.0286 76.3572 10.0286C78.8429 10.0286 80.5572 12 80.5572 14.5714C80.5572 17.1429 78.8429 19.1143 76.2714 19.1143C75.7572 19.1143 74.4714 19.0286 73.5286 17.7429V18.8572H71.2143V4.45715H73.6143V11.4ZM73.3572 14.5714C73.3572 15.9429 74.3 16.9714 75.7572 16.9714C77.1286 16.9714 78.1572 15.9429 78.1572 14.5714C78.1572 13.2 77.2143 12.1714 75.7572 12.1714C74.3 12.1714 73.3572 13.2 73.3572 14.5714Z" fill="white"/>
<path d="M84.5 17.5715L80.3857 10.2858H83.2143L85.8715 15.1715L88.2715 10.2858H91.0143L84.1572 23.4001H81.4143L84.5 17.5715Z" fill="white"/>
<path d="M46.3572 11.7429H43.9572H40.3572V14.1429H43.5286C43.0143 15.7715 41.8143 16.8857 39.5857 16.8857C37.1 16.8857 35.3 14.8286 35.3 12.3429C35.3 9.85717 37.0143 7.71431 39.5 7.71431C40.8715 7.71431 42.2429 8.40002 43.1 9.51431L45.0715 8.2286C43.7857 6.4286 41.7286 5.40002 39.5 5.40002C35.7286 5.40002 32.6429 8.48574 32.6429 12.3429C32.6429 16.2 35.5572 19.2857 39.5 19.2857C43.4429 19.2857 46.3572 16.2 46.3572 12.3429C46.4429 12.0857 46.3572 11.9143 46.3572 11.7429Z" fill="white"/>
</g>
<defs>
<clipPath id="clip0_81_304">
<rect width="91" height="24" fill="white"/>
</clipPath>
</defs>
</svg>
