<svg width="53" height="21" viewBox="0 0 53 21" fill="none" xmlns="http://www.w3.org/2000/svg">
<g clip-path="url(#clip0_86_324)">
<path fill-rule="evenodd" clip-rule="evenodd" d="M0.150391 0V1.43675H10.3694V0H0.150391ZM11.8173 0V1.43675H26.3799C26.3799 1.43675 24.8924 0 22.9223 0H11.8173ZM29.2366 0V1.43675H38.0468L37.5239 0H29.2366ZM44.3631 0L43.8403 1.43675H52.5704V0H44.3631ZM0.150391 2.79412V4.23088H10.3694V2.79412H0.150391ZM11.8173 2.79625V4.231H28.0696C28.0696 4.231 27.8799 3.12512 27.5488 2.79625H11.8173ZM29.2366 2.79625V4.231H39.0126L38.5286 2.79625H29.2366ZM43.3173 2.79625L42.8333 4.231H52.5704V2.79625H43.3173ZM3.08714 5.58825V7.02712H7.51264V5.58825H3.08714ZM14.754 5.58825V7.02712H19.1796V5.58825H14.754ZM23.4841 5.58825V7.02712H27.9098C27.9098 7.02712 28.1908 6.26725 28.1908 5.58825H23.4841ZM32.1734 5.58825V7.02712H40.0196L39.4966 5.58825H32.1734ZM42.3534 5.58825L41.8284 7.02712H49.7136V5.58825H42.3534ZM3.08714 8.38462V9.82137H7.51264V8.38462H3.08714ZM14.754 8.38462V9.82137H26.0579C26.0579 9.82137 27.0035 9.08412 27.3048 8.38462H14.754ZM32.1734 8.38462V9.82137H36.5989V9.0215L36.8799 9.82137H44.9866L45.2881 9.0215V9.82137H49.7136V8.38462H41.4059L40.965 9.6015L40.522 8.38462H32.1734ZM3.08714 11.1787V12.6155H7.51264V11.1787H3.08714ZM14.754 11.1787V12.6155H27.3048C27.0035 11.9182 26.0579 11.1787 26.0579 11.1787H14.754ZM32.1734 11.1787V12.6155H36.5989V11.1787H32.1734ZM37.4028 11.1787L37.938 12.6155H44.0165L44.5251 11.1787H37.4028ZM45.288 11.1787V12.6155H49.7136V11.1787H45.288ZM3.08714 13.9729V15.4096H7.51264V13.9729H3.08714ZM14.754 13.9729V15.4096H19.1796V13.9729H14.754ZM23.4841 13.9729V15.4096H28.1906C28.1906 14.7315 27.9098 13.9729 27.9098 13.9729H23.4841ZM32.1734 13.9729V15.4096H36.5989V13.9729H32.1734ZM38.4078 13.9729L38.9265 15.4096H43.0015L43.5244 13.9729H38.4078ZM45.288 13.9729V15.4096H49.7136V13.9729H45.288ZM0.230391 16.767V18.2059H10.4494V16.767H0.230391ZM11.8173 16.767V18.2059H27.5488C27.8799 17.8764 28.0696 16.767 28.0696 16.767H11.8173ZM29.3166 16.767V18.2059H36.5989V16.767H29.3166ZM39.4146 16.767L39.9478 18.2059H42.0211L42.5215 16.767H39.4146ZM45.288 16.767V18.2059H52.6504V16.767H45.288ZM0.230391 19.5633V21H10.4494V19.5633H0.230391ZM11.8173 19.5633V20.998H22.9223C24.8924 20.998 26.3799 19.5633 26.3799 19.5633H11.8173ZM29.3166 19.5633V21H36.5989V19.5633H29.3166ZM40.4256 19.5633L40.9384 20.996L41.0265 20.998L41.5475 19.5633H40.4256ZM45.288 19.5633V21H52.6504V19.5633H45.288Z" fill="black"/>
</g>
<defs>
<clipPath id="clip0_86_324">
<rect width="53" height="21" fill="white"/>
</clipPath>
</defs>
</svg>
