<svg width="40" height="40" viewBox="0 0 40 40" fill="none" xmlns="http://www.w3.org/2000/svg">
<g clip-path="url(#clip0_84_373)">
<path d="M32 0H8C3.58172 0 0 3.58172 0 8V32C0 36.4183 3.58172 40 8 40H32C36.4183 40 40 36.4183 40 32V8C40 3.58172 36.4183 0 32 0Z" fill="#F9F2FF"/>
<path d="M28.4279 12.5883C27.9262 12.0848 27.3301 11.6854 26.6737 11.4128C26.0173 11.1403 25.3136 11 24.6029 11C23.8922 11 23.1885 11.1403 22.5321 11.4128C21.8757 11.6854 21.2796 12.0848 20.7779 12.5883L20.0079 13.3683L19.2379 12.5883C18.7362 12.0848 18.1401 11.6854 17.4837 11.4128C16.8273 11.1403 16.1236 11 15.4129 11C14.7022 11 13.9985 11.1403 13.3421 11.4128C12.6857 11.6854 12.0896 12.0848 11.5879 12.5883C9.4679 14.7083 9.3379 18.2883 12.0079 21.0083L20.0079 29.0083L28.0079 21.0083C30.6779 18.2883 30.5479 14.7083 28.4279 12.5883Z" stroke="#7026B9" stroke-width="1.5" stroke-linecap="round" stroke-linejoin="round"/>
</g>
<defs>
<clipPath id="clip0_84_373">
<rect width="40" height="40" fill="white"/>
</clipPath>
</defs>
</svg>
