<svg width="108" height="16" viewBox="0 0 108 16" fill="none" xmlns="http://www.w3.org/2000/svg">
<g clip-path="url(#clip0_86_304)">
<path d="M106.279 4.91175C105.707 4.91175 105.223 5.32814 105.223 5.89095C105.223 6.45834 105.707 6.87472 106.279 6.87472C106.846 6.87472 107.33 6.45834 107.33 5.89095C107.33 5.32814 106.846 4.91175 106.279 4.91175ZM106.279 6.71915C105.795 6.71915 105.422 6.3714 105.422 5.89095C105.422 5.42423 105.795 5.0719 106.279 5.0719C106.754 5.0719 107.127 5.42423 107.127 5.89095C107.127 6.3714 106.754 6.71915 106.279 6.71915ZM106.759 5.65302C106.759 5.42881 106.618 5.32814 106.332 5.32814H105.872V6.46291H106.056V5.96874H106.265L106.584 6.46291H106.788L106.444 5.96416C106.623 5.94586 106.759 5.85435 106.759 5.65302ZM106.056 5.82689V5.47456H106.308C106.516 5.47456 106.575 5.53405 106.575 5.64386C106.575 5.76741 106.502 5.82689 106.279 5.82689H106.056ZM48.0967 7.55193C48.0967 11.725 49.5259 13.7383 51.3621 13.7017C52.2585 13.7017 53.0288 12.8369 53.5811 11.7067C54.1577 10.5353 54.3708 10.3751 54.8166 10.3568C55.1993 10.3568 55.3931 10.5993 55.3931 10.9196C55.3931 11.3452 55.2235 11.8073 55.0297 12.3518C54.647 13.482 54.5792 14.0631 54.303 14.8319C54.177 15.175 53.896 15.2574 53.6392 15.2757C53.4067 15.2757 53.1063 15.175 52.8495 14.7907C52.273 15.1933 51.7837 15.4358 50.6742 15.4541C47.8787 15.4953 45.1025 12.814 45.1025 8.11931C45.1025 4.04695 47.8544 0.56027 51.4397 0.500786C52.6121 0.482483 53.4261 0.784479 54.4047 1.34729C54.8311 1.00411 55.0249 0.802781 55.427 0.802781C55.8534 0.802781 55.9793 1.10478 55.9793 1.30611C55.9793 1.82774 55.679 2.09313 55.3834 2.81609C55.0636 3.58023 55.0443 4.12473 54.9571 4.50909C54.8311 4.99412 54.6373 5.55693 54.1237 5.55693C53.6974 5.55693 53.46 5.27323 53.46 4.89345L53.4406 3.9051C53.4212 2.79778 52.7381 2.02907 51.4106 2.05195C49.5695 2.08855 48.0967 4.28488 48.0967 7.55193ZM97.5922 5.85892C97.5922 6.72373 96.9526 7.26823 96.3131 7.26823C95.8868 7.26823 95.5864 7.0486 95.2036 7.0486C94.1135 7.0486 93.6872 8.68212 93.6436 10.1509L93.6242 13.0153C93.6242 13.5415 93.9875 13.7794 94.4769 13.9442C94.9032 14.086 95.4362 14.1638 95.4362 14.6717C95.4362 14.9554 95.349 15.1933 95.0098 15.1933C94.4963 15.1933 93.6436 15.0927 92.8538 15.0927H92.0011C91.1242 15.0927 89.2056 15.1338 88.0526 15.1338C87.476 15.1338 86.8995 15.1522 86.4731 15.1933C85.79 15.1933 85.8336 14.7724 85.8336 13.18L85.8142 10.4392C85.5138 10.4392 85.2813 10.4804 85.1117 10.5216C84.0458 10.7229 83.2319 11.5694 83.2319 12.4571C83.2319 13.3859 83.7842 13.8481 84.8549 13.7657C85.2183 13.7245 85.3443 13.784 85.3443 13.9487C85.3443 14.8181 84.0846 15.4404 83.1447 15.4404C81.8026 15.4404 80.6253 14.4338 80.6253 12.9421C80.6253 11.0066 82.2484 9.53778 85.1698 9.17172C85.3394 9.15342 85.509 9.13054 85.8094 9.13054V8.81024C85.8094 6.87472 85.4266 6.22955 84.4867 6.22955C83.6534 6.22955 83.227 6.65052 82.8637 7.5016C82.6311 8.0644 82.4131 8.69127 81.9044 8.69127C81.4974 8.69127 81.3085 8.40758 81.3085 7.86307C81.3085 7.2179 81.5652 6.55443 81.5652 5.90925V5.36475C81.5652 5.02157 81.822 4.87972 82.0546 4.87972C82.2484 4.87972 82.5875 5.02157 82.9509 5.2412C83.5274 4.9209 84.1476 4.65551 85.0196 4.65551C86.3423 4.65551 87.2628 5.17714 87.7522 6.06483C88.1785 6.82897 88.3093 7.8585 88.3093 9.04818V10.8647C88.2657 13.7474 88.7357 14.1089 89.7386 14.1089C90.5283 14.1089 91.2308 13.5644 91.2308 12.8597L91.1872 7.89968C91.1872 7.43753 90.8868 6.97081 89.7143 6.85185C89.3946 6.81067 89.2444 6.59103 89.2444 6.33022C89.2444 6.08771 89.351 5.86807 89.6901 5.80401C92.2725 5.30069 92.0787 4.75618 92.8684 4.75618C93.2318 4.75618 93.4643 4.97581 93.4643 5.34187C93.4643 5.5615 93.4207 5.90468 93.4207 6.89303V7.31399C94.0602 5.33729 95.1067 4.51367 96.2356 4.51367C97.0544 4.50909 97.5922 5.11308 97.5922 5.85892ZM104.806 12.2695C104.806 13.8435 103.547 15.4358 101.114 15.4358C100.305 15.4358 99.5156 15.2162 98.8324 14.873C98.4497 15.175 98.1687 15.294 98.0427 15.294C97.6164 15.294 97.5098 14.8913 97.5098 14.4475C97.5098 13.8435 97.5098 13.418 97.4226 13.0794C97.3354 12.6767 97.2094 12.393 97.2094 12.0087C97.2094 11.5465 97.4662 11.2811 97.8489 11.2811C98.1687 11.2811 98.3189 11.423 98.5321 11.908C99.1958 13.5003 99.9807 14.0037 101.071 14.0037C102.03 14.0037 102.524 13.5186 102.524 13.0565C102.524 12.393 101.948 11.9903 101.221 11.606L100.451 11.2033C98.1251 9.97247 97.6551 9.22663 97.6551 7.89968C97.6551 6.26616 99.002 4.79279 100.964 4.79279C101.623 4.79279 102.224 4.93463 102.82 5.31899C103.077 5.07648 103.227 4.91633 103.459 4.91633C103.692 4.91633 103.973 5.05818 103.973 5.37847V6.02365C103.973 6.68712 104.205 7.35517 104.205 7.95916C104.205 8.38013 104.036 8.66382 103.648 8.66382C103.178 8.66382 102.965 8.32064 102.582 7.5565C102.2 6.87015 101.773 6.12431 100.916 6.12431C100.32 6.12431 99.8063 6.48579 99.8063 7.17214C99.8063 7.65717 100 8.03695 100.809 8.46249L101.875 9.0253C103.416 9.84892 104.806 10.5353 104.806 12.2695ZM65.0441 14.5893C65.0441 14.873 64.9182 15.1933 64.5984 15.1933C64.4482 15.1933 63.7893 15.1338 63.3194 15.1338C62.7234 15.1338 62.1469 15.175 61.7399 15.1933C61.0568 15.1933 61.1004 14.7724 61.1004 13.18L61.081 10.4392C60.7612 10.4392 60.5287 10.4804 60.3543 10.5216C59.2884 10.7229 58.4987 11.5923 58.4987 12.4571C58.4987 13.3859 59.0316 13.8664 60.1217 13.7657C60.4851 13.7245 60.6111 13.784 60.6111 13.9487C60.6111 14.8181 59.3514 15.4404 58.4115 15.4404C57.0452 15.4404 55.8921 14.4338 55.8921 12.9421C55.8921 11.0295 57.4909 9.55608 60.4366 9.17172C60.6062 9.15342 60.7758 9.13054 61.0762 9.13054V8.81024C61.0762 6.87472 60.6692 6.22955 59.7535 6.22955C58.9008 6.22955 58.4938 6.67339 58.1305 7.5016C57.8979 8.0644 57.6847 8.69127 57.1712 8.69127C56.7642 8.69127 56.5753 8.40758 56.5753 7.86307C56.5753 7.2179 56.8078 6.55443 56.8078 5.90925V5.36475C56.8078 5.02157 57.084 4.87972 57.2971 4.87972C57.5103 4.87972 57.8301 5.02157 58.1935 5.2412C58.77 4.93921 59.4095 4.65551 60.2864 4.65551C61.6333 4.65551 62.5296 5.20002 63.0383 6.08771C63.4647 6.85185 63.5713 7.86307 63.5713 9.05275V10.8464C63.5713 13.5049 63.8911 13.9304 64.6614 14.1135C64.9763 14.1821 65.0441 14.3651 65.0441 14.5893ZM69.952 8.70043C70.0586 8.59976 70.0586 8.41673 70.0586 8.1971C70.0586 7.19045 69.5257 6.2204 68.6923 6.2204C67.8154 6.2204 67.1129 7.24993 67.1129 9.10309V9.40508C67.1129 12.6492 68.5858 13.5369 69.5886 13.5369C70.3784 13.5369 70.7611 13.3356 71.0809 13.0336C71.3377 12.814 71.4878 12.5303 71.827 12.5303C72.1274 12.5303 72.234 12.7316 72.234 12.9741C72.234 14.0814 70.8241 15.4953 68.9249 15.4953C66.0858 15.4953 64.5063 13.116 64.5063 10.2333C64.5063 7.00742 66.6187 4.79279 68.8813 4.79279C71.2068 4.79279 72.3405 6.52697 72.3405 8.84685C72.3405 9.30899 72.3212 9.65217 72.1468 9.87638C71.8706 10.2196 71.483 10.2196 70.5867 10.2196H68.3677C67.985 10.2196 67.7282 10.0594 67.7282 9.71623C67.7282 9.1946 68.0916 9.05275 68.8377 8.97039C69.608 8.86057 69.8212 8.82397 69.952 8.70043ZM80.1505 12.2695C80.1505 13.8435 78.9538 15.4358 76.6719 15.4358C75.8822 15.4358 75.1118 15.2162 74.4529 14.873C74.0702 15.175 73.7892 15.294 73.6632 15.294C73.2369 15.294 73.1303 14.8913 73.1303 14.4475C73.1303 13.8435 73.1303 13.418 73.0431 13.0794C72.9559 12.6767 72.8299 12.393 72.8299 12.0087C72.8299 11.5465 73.0867 11.2811 73.4694 11.2811C73.7892 11.2811 73.9394 11.423 74.1525 11.908C74.8163 13.5003 75.5624 14.0037 76.6283 14.0037C77.4374 14.0037 77.8637 13.5186 77.8637 13.0565C77.8637 12.3701 77.3066 11.9263 76.5605 11.5648L75.8337 11.2033C73.4016 10.0365 72.951 9.22663 72.951 7.89968C72.951 6.26616 74.3173 4.79279 76.3037 4.79279C76.9674 4.79279 77.5634 4.93463 78.1593 5.31899C78.4161 5.07648 78.5662 4.91633 78.7988 4.91633C79.0314 4.91633 79.3124 5.05818 79.3124 5.37847V6.02365C79.3124 6.68712 79.5449 7.35517 79.5449 7.95916C79.5449 8.38013 79.3753 8.66382 78.9926 8.66382C78.5226 8.66382 78.3095 8.32064 77.9267 7.5565C77.544 6.87015 77.1176 6.12431 76.2601 6.12431C75.6399 6.12431 75.107 6.48579 75.107 7.17214C75.107 7.65717 75.3008 8.03695 76.1535 8.46249L77.2194 8.98412C78.7891 9.78944 80.1505 10.517 80.1505 12.2695Z" fill="currentColor"/>
<path d="M13.0732 2.55507C13.0732 1.79093 13.7758 1.16406 14.6333 1.16406C15.5102 1.16406 16.1934 1.79093 16.1934 2.55507C16.1934 3.31921 15.5102 3.92778 14.6333 3.92778C13.7758 3.9232 13.0732 3.31921 13.0732 2.55507Z" fill="currentColor"/>
<path d="M2.67571 12.1587V3.45121C2.67571 1.87717 0.77651 2.26153 0.77651 1.25488C0.77651 1.03524 0.946081 0.811035 1.22224 0.811035C1.58561 0.811035 2.56912 0.930003 3.93054 0.930003H4.25514C5.62141 0.930003 6.79387 0.811035 6.96344 0.811035C7.2396 0.811035 7.40917 1.03067 7.40917 1.25488C7.40917 2.26153 5.44699 1.88175 5.44699 3.43291L5.40823 12.2182C5.38885 13.2661 5.96539 13.4674 7.07487 13.4674H7.86459C8.63493 13.4674 9.29384 13.0236 9.72019 12.3372L10.5729 10.9462C10.912 10.4246 11.1688 10.3193 11.4062 10.3193C11.8326 10.3193 11.9634 10.6396 11.9634 10.9233C11.9634 11.4678 11.3868 12.4562 11.0477 13.5818C10.8539 14.227 10.9217 14.712 10.8345 15.0735C10.7909 15.316 10.6213 15.4166 10.3016 15.4166C9.74441 15.4166 8.89171 15.014 6.01384 15.014H5.28711C3.96445 15.014 2.66117 15.1741 1.38212 15.1741C0.689301 15.1833 0.669922 14.8172 0.669922 14.5793C0.669922 13.5909 2.67571 14.1354 2.67571 12.1587Z" fill="currentColor"/>
<path d="M11.4883 6.36212C11.4883 6.11961 11.5755 5.91828 11.9582 5.83592C14.7537 5.27311 14.5599 4.78809 15.4369 4.78809C15.7373 4.78809 15.9262 5.00772 15.9262 5.39208C15.9262 5.59341 15.8826 5.93658 15.8826 6.92493L15.839 13.0106C15.839 13.5734 16.2217 13.8388 16.6917 13.9761C17.0987 14.1179 17.6074 14.2186 17.6074 14.7036C17.6074 14.9644 17.5202 15.1886 17.2246 15.1886C16.7111 15.1886 15.8584 15.088 15.088 15.088H14.2353C13.465 15.088 12.6123 15.1886 12.0987 15.1886C11.779 15.1886 11.6918 14.969 11.6918 14.7036C11.6918 14.2598 12.0987 14.1408 12.5009 14.0173C12.9514 13.8754 13.4602 13.6146 13.4602 13.0106L13.4165 7.93159C13.3972 7.42826 13.0968 6.90206 11.9437 6.78309C11.6385 6.74648 11.4883 6.58633 11.4883 6.36212Z" fill="currentColor"/>
<path d="M33.9443 10.2335C33.9443 7.0076 36.0567 4.79297 38.3193 4.79297C40.6448 4.79297 41.7785 6.52716 41.7785 8.84245C41.7785 9.3046 41.7592 9.64778 41.5847 9.87198C41.3086 10.2152 40.921 10.2152 40.0247 10.2152H37.8057C37.423 10.2152 37.1662 10.055 37.1662 9.71184C37.1662 9.18563 37.5296 9.04836 38.2757 8.966C39.046 8.86533 39.2592 8.82415 39.3852 8.70518C39.4918 8.60452 39.4917 8.42149 39.4917 8.20186C39.4917 7.19521 38.9588 6.22516 38.1255 6.22516C37.2486 6.22516 36.546 7.25469 36.546 9.10784V9.40984C36.546 12.654 38.0189 13.5417 39.0218 13.5417C39.8115 13.5417 40.1943 13.3404 40.514 13.0384C40.7708 12.8187 40.921 12.535 41.2601 12.535C41.5605 12.535 41.6671 12.7364 41.6671 12.9789C41.6671 14.0862 40.2572 15.5001 38.358 15.5001C35.5238 15.4955 33.9443 13.1161 33.9443 10.2335Z" fill="currentColor"/>
<path d="M28.436 2.31288C28.436 2.07037 28.5232 1.86904 28.906 1.79125C31.7209 1.24674 31.7645 0.761719 32.4088 0.761719C32.685 0.761719 32.8546 0.981352 32.8546 1.34741C32.8546 1.54874 32.8352 1.89191 32.8352 2.88026L32.7916 13.0154C32.7916 13.5599 33.155 13.8024 33.6443 13.9443C34.0513 14.0861 34.56 14.228 34.56 14.7496C34.56 15.0104 34.4534 15.1935 34.1336 15.1935C33.6201 15.1935 32.7867 15.0928 32.0406 15.0928H31.1928C30.466 15.0928 29.6569 15.1935 29.1676 15.1935C28.8672 15.1935 28.7849 15.0104 28.7849 14.7496C28.7849 14.2646 29.1918 14.1227 29.5746 13.9855C29.9816 13.8665 30.4273 13.6011 30.4273 13.02L30.3788 3.88234C30.3595 3.37901 30.0591 2.87569 28.9254 2.73384C28.6105 2.69266 28.436 2.55539 28.436 2.31288Z" fill="currentColor"/>
<path d="M23.6781 12.7319L23.6975 6.6234H20.5386L20.495 12.2652C20.495 13.0934 20.7954 13.4961 21.3913 13.4961C21.7304 13.4961 21.9242 13.3542 22.118 13.2124C22.4184 12.9928 22.5008 12.8509 22.7818 12.8509C22.9756 12.8509 23.0579 13.0111 23.0579 13.1529C23.0579 14.1824 21.8612 15.4499 20.369 15.4499C19.1723 15.4499 17.9999 14.8642 17.9999 12.7274L18.0192 6.61882H17.3797C16.716 6.61882 16.5464 6.49986 16.5464 6.1155C16.5464 5.75402 16.653 5.61217 17.0793 5.42914C17.6752 5.16833 17.995 4.94412 18.339 4.4408C19.1093 3.35178 19.0851 2.28564 20.0686 2.28564C20.3884 2.28564 20.5192 2.46867 20.5192 2.70661L20.4998 5.12715H22.3167C23.1064 5.12715 23.5763 5.08597 24.0221 4.4408C24.7924 3.35178 24.7682 2.28564 25.7517 2.28564C26.0278 2.28564 26.2023 2.44579 26.2023 2.70661L26.1829 5.12715H28.4018C28.741 5.12715 28.9348 5.20951 28.9348 5.63048C28.9348 6.01483 28.8476 6.61882 28.1887 6.61882H26.2023L26.1829 12.2607C26.1829 13.0889 26.4833 13.4915 27.0598 13.4915C27.399 13.4915 27.5927 13.3497 27.8059 13.1895C28.1063 12.947 28.1887 12.8463 28.4455 12.8463C28.6586 12.8463 28.7458 13.0065 28.7458 13.1483C28.7458 14.1779 27.5298 15.4453 26.1441 15.4453C24.8505 15.4545 23.6781 14.8688 23.6781 12.7319Z" fill="currentColor"/>
</g>
<defs>
<clipPath id="clip0_86_304">
<rect width="108" height="16" fill="white"/>
</clipPath>
</defs>
</svg>
