<svg width="129" height="24" viewBox="0 0 129 24" fill="none" xmlns="http://www.w3.org/2000/svg">
<g clip-path="url(#clip0_86_339)">
<path d="M23.6079 16.4073L24.0566 13.6258C24.0606 13.6072 24.0603 13.588 24.0556 13.5696C24.0509 13.5512 24.0419 13.5342 24.0295 13.5199C24.017 13.5056 24.0014 13.4944 23.9839 13.4872C23.9663 13.4799 23.9473 13.4769 23.9284 13.4784H14.8788C14.3468 13.4741 13.8303 13.6574 13.4201 13.9962C13.0099 14.3349 12.7321 14.8074 12.6357 15.3306L12.187 17.9711C12.1199 18.3535 11.9182 18.6992 11.6186 18.946C11.3189 19.1928 10.9409 19.3244 10.5527 19.317H6.03436C5.6482 19.3168 5.27409 19.1825 4.976 18.937C4.6779 18.6915 4.47432 18.3501 4.40006 17.9711L3.83606 14.9204H7.38026C7.41329 14.9175 7.44424 14.9031 7.46768 14.8796C7.49112 14.8562 7.50555 14.8253 7.50844 14.7922V14.1962C7.50507 14.0035 7.42573 13.82 7.28768 13.6856C7.14964 13.5511 6.96408 13.4767 6.7714 13.4784H2.28508C2.26616 13.4769 2.24716 13.4799 2.22961 13.4872C2.21205 13.4944 2.19643 13.5056 2.18397 13.5199C2.17152 13.5342 2.16259 13.5512 2.15789 13.5696C2.15319 13.588 2.15285 13.6072 2.1569 13.6258L2.63757 16.4073H0.458503C0.442507 16.4064 0.426497 16.4087 0.411391 16.4141C0.396286 16.4194 0.382381 16.4277 0.370473 16.4384C0.358566 16.4491 0.34889 16.4621 0.342 16.4765C0.335111 16.491 0.331142 16.5067 0.330322 16.5227L0.490548 17.4199C0.513775 17.5308 0.573991 17.6306 0.661325 17.7028C0.74866 17.775 0.857931 17.8153 0.971226 17.8173H2.89394L3.07339 18.8748C3.17101 19.3974 3.44907 19.8692 3.85905 20.2077C4.26903 20.5462 4.78488 20.73 5.31655 20.727H11.2129C11.7449 20.7313 12.2614 20.548 12.6716 20.2092C13.0818 19.8705 13.3596 19.398 13.456 18.8748L13.8982 16.2343C13.9665 15.8502 14.1689 15.5028 14.4694 15.254C14.7699 15.0051 15.1489 14.871 15.539 14.8755H22.3966L21.8647 17.9327C21.7961 18.3138 21.5939 18.6581 21.2944 18.9036C20.9949 19.1491 20.6176 19.2798 20.2304 19.2721H18.4679C18.2752 19.2704 18.0897 19.3449 17.9516 19.4793C17.8136 19.6138 17.7342 19.7973 17.7309 19.99V20.586C17.7337 20.619 17.7482 20.65 17.7716 20.6734C17.7951 20.6969 17.826 20.7113 17.859 20.7142H20.9033C21.4359 20.7169 21.9525 20.5322 22.3626 20.1924C22.7727 19.8526 23.0502 19.3794 23.1465 18.8556L23.3388 17.8045H25.1974C25.3122 17.8047 25.4235 17.7642 25.5114 17.6904C25.5994 17.6165 25.6584 17.5139 25.6781 17.4007L25.8383 16.5227C25.8423 16.5041 25.842 16.4849 25.8373 16.4665C25.8326 16.4481 25.8237 16.4311 25.8112 16.4168C25.7988 16.4025 25.7831 16.3912 25.7656 16.384C25.748 16.3768 25.729 16.3738 25.7101 16.3753H23.6079" fill="black"/>
<path fill-rule="evenodd" clip-rule="evenodd" d="M8.60644 16.5668C8.72558 16.6788 8.88303 16.7411 9.04655 16.7408C9.14932 16.7413 9.2507 16.7172 9.34217 16.6703C9.43363 16.6235 9.51249 16.5553 9.57209 16.4716C9.65189 16.6419 9.69136 16.8283 9.68746 17.0164C9.68729 17.312 9.6001 17.6011 9.43676 17.8475C9.27342 18.094 9.04116 18.2869 8.76892 18.4023C8.49669 18.5176 8.19653 18.5503 7.90585 18.4962C7.61518 18.4421 7.34685 18.3037 7.13431 18.0981C6.92178 17.8926 6.77444 17.6291 6.71067 17.3404C6.64689 17.0517 6.6695 16.7506 6.77567 16.4746C6.88184 16.1987 7.06689 15.9601 7.30773 15.7886C7.54858 15.6171 7.83457 15.5203 8.13006 15.5102C8.32331 15.5158 8.51414 15.5548 8.69406 15.6256C8.60854 15.6818 8.53773 15.7577 8.48755 15.8469C8.43737 15.9361 8.40929 16.036 8.40565 16.1383C8.41546 16.3015 8.48729 16.4548 8.60644 16.5668ZM17.9636 16.5668C18.0828 16.6788 18.2402 16.7411 18.4037 16.7408C18.5051 16.7438 18.6056 16.7206 18.6954 16.6735C18.7852 16.6263 18.8614 16.5568 18.9165 16.4716C18.9851 16.6452 19.022 16.8297 19.0254 17.0164C19.0253 17.3123 18.938 17.6016 18.7744 17.8483C18.6108 18.0949 18.3782 18.2878 18.1056 18.403C17.8329 18.5182 17.5324 18.5506 17.2416 18.496C16.9507 18.4414 16.6824 18.3024 16.47 18.0962C16.2577 17.89 16.1109 17.6259 16.0478 17.3367C15.9847 17.0476 16.0082 16.7463 16.1154 16.4704C16.2225 16.1945 16.4085 15.9563 16.6503 15.7856C16.892 15.6148 17.1786 15.519 17.4744 15.5102C17.6676 15.5164 17.8583 15.5554 18.0384 15.6256C17.9553 15.6832 17.887 15.7598 17.8391 15.8489C17.7912 15.938 17.765 16.0372 17.7628 16.1383C17.7727 16.3015 17.8445 16.4548 17.9636 16.5668ZM7.28407 8.52439C3.95137 8.8897 3.13101 10.3189 3.22715 12.0942C3.22402 12.1509 3.20219 12.2049 3.16508 12.2478C3.12797 12.2907 3.07767 12.3201 3.02206 12.3314H1.97739C1.92753 12.3304 1.87961 12.3119 1.84209 12.2791C1.80456 12.2462 1.77984 12.2012 1.7723 12.1519C1.75506 12.0565 1.7374 11.9597 1.71951 11.8616C1.22514 9.15066 0.546826 5.43101 3.34251 3.01261C5.31649 1.3014 8.3736 0.500273 11.6422 0.500273C12.747 0.490782 13.8508 0.570082 14.9429 0.737407C14.9879 0.746315 15.03 0.766611 15.065 0.796363C15.1 0.826114 15.1268 0.864331 15.1429 0.907375C15.1589 0.950419 15.1637 0.996858 15.1567 1.04227C15.1498 1.08768 15.1313 1.13056 15.1031 1.16681C14.9908 1.31461 14.8962 1.43515 14.818 1.5347C14.7267 1.65099 14.6579 1.73866 14.6096 1.80772C14.5932 1.829 14.5829 1.85437 14.5799 1.88107C14.5769 1.90776 14.5812 1.93478 14.5924 1.95919C14.6037 1.98361 14.6213 2.00449 14.6436 2.01959C14.6658 2.03469 14.6917 2.04342 14.7185 2.04485C23.39 2.34607 24.9217 5.70441 24.2808 10.2933L24.0117 12.1327C24.0026 12.1819 23.9763 12.2263 23.9376 12.2579C23.8989 12.2896 23.8502 12.3065 23.8002 12.3057H22.8388C22.8076 12.3065 22.7767 12.3001 22.7484 12.2871C22.72 12.2741 22.695 12.2549 22.6753 12.2308C22.6555 12.2067 22.6415 12.1784 22.6343 12.1481C22.6271 12.1177 22.6269 12.0862 22.6337 12.0558C22.6786 11.8122 22.7298 11.5238 22.5696 11.3636C22.1911 11.1154 21.7372 11.0088 21.2878 11.0624C20.7166 11.0624 19.9897 11.1242 19.1618 11.1945C18.0671 11.2876 16.7959 11.3956 15.4748 11.3956C12.5715 11.3956 9.41187 10.8893 7.28407 8.52439ZM21.2056 7.90458C21.3075 7.96686 21.4248 7.99942 21.5442 7.99859V7.96014C21.6145 7.96879 21.6855 7.96879 21.7557 7.96014C21.8246 7.94631 21.8897 7.91814 21.9469 7.87746C22.0041 7.83679 22.0521 7.78452 22.0878 7.72406C22.1235 7.6636 22.146 7.5963 22.154 7.52655C22.1619 7.4568 22.155 7.38616 22.1339 7.31924C21.4161 5.47984 19.0639 4.42876 15.2954 4.26853H14.1931C14.1171 4.25874 14.0399 4.26434 13.9662 4.28501C13.8924 4.30568 13.8236 4.34099 13.7638 4.38884C13.704 4.43669 13.6544 4.4961 13.6181 4.56352C13.5817 4.63094 13.5593 4.70499 13.5522 4.78126C13.5593 4.85752 13.5817 4.93158 13.6181 4.999C13.6544 5.06642 13.704 5.12582 13.7638 5.17367C13.8236 5.22152 13.8924 5.25684 13.9662 5.27751C14.0399 5.29818 14.1171 5.30378 14.1931 5.29398H15.2313C17.4745 5.39012 20.3265 5.87079 20.9674 7.6461C21.0212 7.75277 21.1037 7.84229 21.2056 7.90458ZM12.2929 5.54186C12.3982 5.62958 12.5307 5.6779 12.6677 5.67852V5.71057H12.7318C12.8063 5.70206 12.8783 5.67843 12.9434 5.64113C13.0084 5.60384 13.0652 5.55365 13.1102 5.49366C13.1552 5.43366 13.1875 5.36511 13.2051 5.29221C13.2227 5.2193 13.2252 5.14358 13.2125 5.06966C13.1948 4.92548 13.121 4.79409 13.0069 4.70408C12.8929 4.61407 12.748 4.57271 12.6036 4.58899H12.5203C12.4521 4.60061 12.3868 4.6256 12.3282 4.66253C12.2697 4.69946 12.219 4.7476 12.1791 4.80417C12.1392 4.86075 12.1109 4.92465 12.0957 4.99221C12.0806 5.05977 12.079 5.12965 12.0909 5.19784C12.1162 5.33251 12.1877 5.45415 12.2929 5.54186Z" fill="black"/>
<path d="M32.9844 6.86429C32.9858 6.78364 33.0177 6.70651 33.0735 6.6483C33.1293 6.59009 33.2051 6.55507 33.2856 6.55025H33.5932C33.6595 6.55025 33.7231 6.57658 33.77 6.62345C33.8168 6.67033 33.8432 6.73391 33.8432 6.8002L33.9585 7.85128C34.3363 7.36376 34.8227 6.97134 35.3792 6.70538C35.9356 6.43941 36.5465 6.30727 37.1631 6.31952C37.788 6.28277 38.4098 6.4325 38.9495 6.74972C39.4893 7.06694 39.9226 7.53734 40.1945 8.10123C40.6115 7.57051 41.1385 7.13643 41.7393 6.82886C42.34 6.52128 43.0003 6.34752 43.6746 6.31952C46.1998 6.31952 47.2957 8.04996 47.2957 10.761V15.9523C47.2958 16.0334 47.2645 16.1114 47.2083 16.1699C47.1522 16.2285 47.0756 16.263 46.9945 16.2663H46.5331C46.3921 16.2663 46.2831 16.151 46.2831 15.9523V10.7546C46.2831 8.52423 45.3602 7.35778 43.6106 7.35778C43.0082 7.38113 42.4192 7.54163 41.8883 7.82707C41.3574 8.11251 40.8987 8.51535 40.547 9.00491C40.6814 9.57798 40.7396 10.1663 40.7201 10.7546V15.9459C40.7201 16.027 40.6888 16.105 40.6327 16.1635C40.5765 16.2221 40.4999 16.2566 40.4189 16.2599H40.0023C39.9621 16.2601 39.9224 16.2519 39.8856 16.2358C39.8489 16.2197 39.8159 16.1962 39.7887 16.1666C39.7616 16.1371 39.7409 16.1022 39.728 16.0641C39.7151 16.0261 39.7103 15.9859 39.7139 15.9459V10.7546C39.7139 8.52423 38.7589 7.35778 37.0285 7.35778C36.4267 7.3748 35.838 7.53695 35.3125 7.83043C34.7869 8.1239 34.34 8.54002 34.0098 9.04336V15.9651C34.0159 16.0067 34.0124 16.049 33.9996 16.089C33.9868 16.129 33.9651 16.1655 33.936 16.1958C33.907 16.2261 33.8714 16.2494 33.832 16.2638C33.7925 16.2783 33.7503 16.2835 33.7086 16.2792H33.2471C33.2095 16.276 33.1728 16.2653 33.1393 16.2476C33.1059 16.23 33.0763 16.2058 33.0524 16.1765C33.0285 16.1472 33.0107 16.1134 33.0001 16.0771C32.9895 16.0408 32.9864 16.0027 32.9908 15.9651V6.86429H32.9844ZM53.7945 6.30029C56.3581 6.30029 58.4539 8.61395 58.4539 11.3762C58.4539 14.1385 56.3838 16.5035 53.7945 16.5035C51.2053 16.5035 49.1416 14.2219 49.1416 11.3762C49.1416 8.53064 51.1732 6.30029 53.7945 6.30029ZM53.7945 15.5037C55.8326 15.5037 57.4348 13.6899 57.4348 11.3762C57.4348 9.06259 55.8326 7.31933 53.7945 7.31933C51.7564 7.31933 50.1285 9.13309 50.1285 11.3955C50.1285 13.6579 51.7308 15.5037 53.7945 15.5037ZM60.4535 6.86429C60.4568 6.78094 60.4918 6.70198 60.5513 6.6436C60.6109 6.58522 60.6905 6.55182 60.7739 6.55025H61.0111C61.0806 6.5498 61.1479 6.57507 61.2 6.6212C61.252 6.66734 61.2852 6.73109 61.2931 6.8002L61.3892 7.85128C61.8324 7.38185 62.3641 7.00481 62.9537 6.74191C63.5433 6.47901 64.1791 6.33545 64.8245 6.31952C67.3881 6.31952 68.5545 8.04996 68.5545 10.761V15.9523C68.5546 16.0334 68.5233 16.1114 68.4671 16.1699C68.411 16.2285 68.3343 16.263 68.2533 16.2663H67.8431C67.7621 16.263 67.6854 16.2285 67.6293 16.1699C67.5731 16.1114 67.5418 16.0334 67.5419 15.9523V10.7546C67.5419 8.52423 66.5357 7.35778 64.7732 7.35778C64.1337 7.39542 63.5088 7.56453 62.9376 7.85455C62.3663 8.14457 61.8611 8.54927 61.4533 9.04336V15.9651C61.4594 16.0067 61.4559 16.049 61.4431 16.089C61.4303 16.129 61.4086 16.1655 61.3795 16.1958C61.3505 16.2261 61.3149 16.2494 61.2754 16.2638C61.236 16.2783 61.1938 16.2835 61.1521 16.2792H60.7099C60.6722 16.276 60.6355 16.2653 60.602 16.2476C60.5686 16.23 60.539 16.2058 60.5151 16.1765C60.4912 16.1472 60.4734 16.1134 60.4628 16.0771C60.4522 16.0408 60.4491 16.0027 60.4535 15.9651V6.86429ZM74.9892 6.30029C77.4182 6.30029 79.1871 8.16532 79.1871 10.7418C79.1871 11.1263 79.1871 11.6903 78.8346 11.6903H71.4065C71.5027 13.786 72.9319 15.5357 75.0276 15.5357C76.0079 15.5221 76.9606 15.209 77.7579 14.6384C77.9694 14.4846 78.0591 14.4718 78.1745 14.6384L78.4116 14.9717C78.4435 15.0369 78.4513 15.1112 78.4337 15.1815C78.4161 15.2519 78.3743 15.3138 78.3155 15.3563C77.3624 16.1043 76.1879 16.5146 74.9764 16.5227C72.1436 16.5227 70.4131 14.2411 70.4131 11.3955C70.4131 8.54986 72.1628 6.30029 74.9892 6.30029ZM78.1937 10.8251C78.1937 8.90236 77.0978 7.28088 74.9892 7.28088C74.5247 7.28087 74.0647 7.37268 73.6358 7.55103C73.2069 7.72937 72.8174 7.99074 72.4898 8.3201C72.1623 8.64947 71.903 9.04033 71.727 9.47022C71.551 9.90011 71.4617 10.3606 71.4642 10.8251H78.1937ZM79.6742 6.90915C79.5781 6.71047 79.6101 6.52461 79.8216 6.52461H80.3279C80.3939 6.52772 80.4575 6.54999 80.511 6.58869C80.5645 6.62739 80.6055 6.68085 80.6291 6.74252L84.6027 14.9461H84.6476L88.2687 6.74252C88.2927 6.67987 88.3348 6.62575 88.3895 6.58697C88.4443 6.54819 88.5093 6.52649 88.5763 6.52461H89.0827C89.2877 6.52461 89.3198 6.72329 89.2237 6.90915L81.9494 23.3163C81.93 23.3817 81.8928 23.4403 81.8418 23.4856C81.7908 23.531 81.7282 23.5611 81.661 23.5726H81.1034C80.9111 23.5726 80.847 23.4573 80.9432 23.2394L84.0772 16.1894L79.6742 6.90915Z" fill="black"/>
<path d="M90.9734 12.9911C90.4951 12.3102 90.2419 11.4967 90.2492 10.6646C90.2492 8.43429 91.8194 6.7359 94.3382 6.7359H98.1836C98.2239 6.73413 98.2642 6.74067 98.3019 6.7551C98.3396 6.76952 98.3739 6.79154 98.4027 6.81978C98.4316 6.84802 98.4543 6.88188 98.4695 6.91927C98.4847 6.95665 98.4921 6.99677 98.4912 7.03712V7.29348C98.4939 7.35622 98.4741 7.41786 98.4353 7.46724C98.3965 7.51662 98.3413 7.55047 98.2797 7.56266L96.5941 7.67162C97.0492 7.91516 98.0362 8.7227 98.0362 10.6518C98.0496 11.1632 97.9582 11.6719 97.7677 12.1466C97.5772 12.6214 97.2915 13.0521 96.9283 13.4123C96.5651 13.7725 96.132 14.0546 95.6557 14.2412C95.1794 14.4278 94.6699 14.5149 94.1587 14.4972C93.6967 14.533 93.2321 14.4766 92.792 14.3314C92.3519 14.1862 91.9451 13.955 91.5951 13.6512C91.2566 13.7851 90.9643 14.0145 90.7538 14.3115C90.5433 14.6085 90.4237 14.9603 90.4094 15.324C90.4094 16.42 91.3387 16.6763 92.2552 16.6763H95.6456C97.6516 16.6763 99.1129 17.58 99.1129 19.6501C99.1129 21.6241 97.1902 23.4378 94.3382 23.4378C91.1657 23.4378 89.7685 21.5792 89.7685 20.0026C89.7807 19.5034 89.9231 19.016 90.1816 18.5888C90.4402 18.1616 90.8059 17.8094 91.2426 17.5672C90.7501 17.46 90.3058 17.1959 89.9764 16.8145C89.647 16.4331 89.4503 15.955 89.416 15.4522C89.4378 14.9416 89.593 14.4457 89.8663 14.0138C90.1396 13.582 90.5213 13.2294 90.9734 12.9911ZM94.2997 22.5085C96.4019 22.5085 98.0169 21.278 98.0169 19.6886C98.0169 18.6247 97.376 17.6505 95.6328 17.6505H92.6846C92.4411 17.6505 90.794 18.2914 90.794 19.9129C90.8132 21.1883 92.0437 22.5085 94.2997 22.5085ZM97.0428 10.6326C97.0729 10.2437 97.0204 9.85275 96.8886 9.48559C96.7568 9.11843 96.5487 8.78335 96.2781 8.50241C96.0074 8.22147 95.6804 8.00105 95.3184 7.85564C94.9564 7.71023 94.5677 7.64315 94.1779 7.6588C93.7833 7.64245 93.3896 7.70823 93.0218 7.85198C92.6539 7.99573 92.32 8.2143 92.041 8.49387C91.762 8.77343 91.5442 9.10788 91.4012 9.47604C91.2583 9.8442 91.1933 10.238 91.2105 10.6326C91.2105 11.406 91.5178 12.1477 92.0647 12.6946C92.6115 13.2415 93.3533 13.5487 94.1267 13.5487C94.9001 13.5487 95.6418 13.2415 96.1887 12.6946C96.7355 12.1477 97.0428 11.406 97.0428 10.6326ZM104.266 6.7359C104.828 6.71705 105.389 6.81418 105.912 7.02122C106.435 7.22826 106.91 7.54079 107.308 7.93937C107.705 8.33794 108.016 8.81403 108.222 9.33801C108.427 9.86199 108.523 10.4226 108.502 10.9851C108.502 11.3504 108.502 11.8888 108.15 11.8888H100.677C100.68 12.8601 101.066 13.791 101.751 14.4796C102.436 15.1682 103.365 15.5591 104.336 15.5675C105.317 15.5546 106.272 15.2562 107.086 14.7087C107.297 14.5613 107.393 14.5485 107.509 14.7087L107.746 15.0292C107.81 15.1189 107.791 15.2663 107.65 15.3945C106.664 16.1146 105.473 16.4988 104.253 16.4904C101.401 16.4904 99.6577 14.3114 99.6577 11.5875C99.6577 8.8637 101.42 6.7359 104.266 6.7359ZM107.47 11.062C107.47 9.24824 106.368 7.67162 104.266 7.67162C103.81 7.66055 103.356 7.73952 102.931 7.90401C102.506 8.0685 102.117 8.31528 101.787 8.63021C101.457 8.94514 101.193 9.32204 101.009 9.73933C100.825 10.1566 100.725 10.6061 100.715 11.062H107.47ZM114.347 6.7359C114.909 6.717 115.469 6.81414 115.993 7.02124C116.516 7.22835 116.99 7.54099 117.387 7.93967C117.784 8.33834 118.095 8.81451 118.299 9.33847C118.504 9.86243 118.599 10.423 118.577 10.9851C118.577 11.3504 118.577 11.8888 118.225 11.8888H110.758C110.758 12.86 111.142 13.7919 111.827 14.481C112.511 15.1702 113.44 15.5608 114.411 15.5675C115.394 15.5555 116.352 15.257 117.167 14.7087C117.372 14.5613 117.475 14.5485 117.584 14.7087L117.821 15.0292C117.891 15.1189 117.872 15.2663 117.731 15.3945C116.753 16.1222 115.567 16.5175 114.347 16.5225C111.502 16.5225 109.752 14.3434 109.752 11.6196C109.752 8.89574 111.495 6.7359 114.347 6.7359ZM117.552 11.062C117.552 9.24824 116.449 7.67162 114.347 7.67162C113.891 7.65969 113.436 7.73803 113.01 7.90214C112.584 8.06624 112.195 8.31288 111.864 8.62789C111.534 8.94291 111.269 9.3201 111.084 9.73781C110.9 10.1555 110.8 10.6055 110.79 11.062H117.552ZM120.5 0.307634C120.503 0.227056 120.536 0.150633 120.593 0.0936115C120.65 0.0365903 120.727 0.00316353 120.807 0H121.205C121.285 0.00325068 121.36 0.0368981 121.416 0.0940714C121.472 0.151245 121.504 0.227632 121.506 0.307634V10.7159L126.524 7.11403C126.628 7.02541 126.76 6.97558 126.896 6.97303H127.569C127.806 6.97303 127.819 7.27426 127.627 7.38962L122.602 11.062L128.236 15.8688C128.273 15.8944 128.302 15.931 128.317 15.9736C128.333 16.0162 128.335 16.0626 128.323 16.1063C128.311 16.15 128.285 16.1889 128.25 16.2176C128.215 16.2463 128.172 16.2632 128.127 16.2661H127.409C127.322 16.2699 127.234 16.2547 127.154 16.2215C127.073 16.1883 127 16.1379 126.941 16.0739L121.538 11.4594V15.9457C121.545 15.9867 121.541 16.0288 121.529 16.0683C121.516 16.1079 121.494 16.1439 121.464 16.1733C121.435 16.2027 121.399 16.2247 121.36 16.2375C121.32 16.2503 121.278 16.2535 121.237 16.2469H120.756C120.719 16.2445 120.683 16.2347 120.65 16.2182C120.618 16.2016 120.588 16.1786 120.564 16.1505C120.54 16.1224 120.522 16.0898 120.511 16.0546C120.5 16.0195 120.496 15.9824 120.5 15.9457V0.307634Z" fill="black"/>
</g>
<defs>
<clipPath id="clip0_86_339">
<rect width="129" height="24" fill="white"/>
</clipPath>
</defs>
</svg>
