<svg width="40" height="40" viewBox="0 0 40 40" fill="none" xmlns="http://www.w3.org/2000/svg">
<g clip-path="url(#clip0_84_332)">
<path d="M32 0H8C3.58172 0 0 3.58172 0 8V32C0 36.4183 3.58172 40 8 40H32C36.4183 40 40 36.4183 40 32V8C40 3.58172 36.4183 0 32 0Z" fill="#F9F2FF"/>
<path d="M22.0835 11.6665H15.0002C14.5581 11.6665 14.1342 11.8421 13.8217 12.1547C13.5091 12.4672 13.3335 12.8911 13.3335 13.3332V26.6665C13.3335 27.1085 13.5091 27.5325 13.8217 27.845C14.1342 28.1576 14.5581 28.3332 15.0002 28.3332H25.0002C25.4422 28.3332 25.8661 28.1576 26.1787 27.845C26.4912 27.5325 26.6668 27.1085 26.6668 26.6665V16.2498L22.0835 11.6665Z" stroke="#7026B9" stroke-width="1.5" stroke-linecap="round" stroke-linejoin="round"/>
<path d="M21.6665 11.6665V16.6665H26.6665" stroke="#7026B9" stroke-width="1.5" stroke-linecap="round" stroke-linejoin="round"/>
</g>
<defs>
<clipPath id="clip0_84_332">
<rect width="40" height="40" fill="white"/>
</clipPath>
</defs>
</svg>
